<mxfile host="Electron" agent="Mozilla/5.0 (Macintosh; Intel Mac OS X 10_15_7) AppleWebKit/537.36 (KHTML, like Gecko) draw.io/28.0.6 Chrome/138.0.7204.100 Electron/37.2.3 Safari/537.36" version="28.0.6">
  <diagram name="Page-1" id="C0qsEUh1VBEhp1gazk25">
    <mxGraphModel dx="1426" dy="912" grid="1" gridSize="10" guides="1" tooltips="1" connect="1" arrows="1" fold="1" page="1" pageScale="1" pageWidth="1169" pageHeight="827" background="none" math="0" shadow="1">
      <root>
        <mxCell id="0" />
        <mxCell id="1" parent="0" />
        <mxCell id="uqggrCIMywmLvtEO4xYs-2" value="" style="rounded=0;whiteSpace=wrap;html=1;" vertex="1" parent="1">
          <mxGeometry x="180" y="210" width="770" height="180" as="geometry" />
        </mxCell>
        <mxCell id="uqggrCIMywmLvtEO4xYs-10" value="" style="edgeStyle=orthogonalEdgeStyle;rounded=0;orthogonalLoop=1;jettySize=auto;html=1;" edge="1" parent="1" source="uqggrCIMywmLvtEO4xYs-3" target="uqggrCIMywmLvtEO4xYs-4">
          <mxGeometry relative="1" as="geometry" />
        </mxCell>
        <mxCell id="uqggrCIMywmLvtEO4xYs-14" style="edgeStyle=orthogonalEdgeStyle;rounded=0;orthogonalLoop=1;jettySize=auto;html=1;dashed=1;" edge="1" parent="1" source="uqggrCIMywmLvtEO4xYs-3" target="uqggrCIMywmLvtEO4xYs-11">
          <mxGeometry relative="1" as="geometry" />
        </mxCell>
        <mxCell id="uqggrCIMywmLvtEO4xYs-3" value="Task 1 is_api_available" style="rounded=0;whiteSpace=wrap;html=1;" vertex="1" parent="1">
          <mxGeometry x="200" y="270" width="110" height="60" as="geometry" />
        </mxCell>
        <mxCell id="uqggrCIMywmLvtEO4xYs-6" value="" style="edgeStyle=orthogonalEdgeStyle;rounded=0;orthogonalLoop=1;jettySize=auto;html=1;" edge="1" parent="1" source="uqggrCIMywmLvtEO4xYs-4" target="uqggrCIMywmLvtEO4xYs-5">
          <mxGeometry relative="1" as="geometry" />
        </mxCell>
        <mxCell id="uqggrCIMywmLvtEO4xYs-4" value="Task 2&amp;nbsp;&lt;div&gt;get_stock_prices&lt;/div&gt;" style="rounded=0;whiteSpace=wrap;html=1;" vertex="1" parent="1">
          <mxGeometry x="340" y="270" width="120" height="60" as="geometry" />
        </mxCell>
        <mxCell id="uqggrCIMywmLvtEO4xYs-8" value="" style="edgeStyle=orthogonalEdgeStyle;rounded=0;orthogonalLoop=1;jettySize=auto;html=1;dashed=1;entryX=0.5;entryY=0;entryDx=0;entryDy=0;entryPerimeter=0;" edge="1" parent="1" source="uqggrCIMywmLvtEO4xYs-5" target="uqggrCIMywmLvtEO4xYs-9">
          <mxGeometry relative="1" as="geometry">
            <mxPoint x="570" y="414" as="targetPoint" />
          </mxGeometry>
        </mxCell>
        <mxCell id="uqggrCIMywmLvtEO4xYs-22" value="" style="edgeStyle=orthogonalEdgeStyle;rounded=0;orthogonalLoop=1;jettySize=auto;html=1;" edge="1" parent="1" source="uqggrCIMywmLvtEO4xYs-5" target="uqggrCIMywmLvtEO4xYs-21">
          <mxGeometry relative="1" as="geometry" />
        </mxCell>
        <mxCell id="uqggrCIMywmLvtEO4xYs-5" value="Task 3&amp;nbsp;&lt;div&gt;store_prices&lt;/div&gt;" style="rounded=0;whiteSpace=wrap;html=1;" vertex="1" parent="1">
          <mxGeometry x="490" y="270" width="120" height="60" as="geometry" />
        </mxCell>
        <mxCell id="uqggrCIMywmLvtEO4xYs-9" value="MinIO Database&amp;nbsp;" style="shape=cylinder3;whiteSpace=wrap;html=1;boundedLbl=1;backgroundOutline=1;size=15;" vertex="1" parent="1">
          <mxGeometry x="510" y="420" width="80" height="100" as="geometry" />
        </mxCell>
        <mxCell id="uqggrCIMywmLvtEO4xYs-13" value="" style="edgeStyle=orthogonalEdgeStyle;rounded=0;orthogonalLoop=1;jettySize=auto;html=1;endArrow=none;endFill=0;" edge="1" parent="1" source="uqggrCIMywmLvtEO4xYs-11" target="uqggrCIMywmLvtEO4xYs-12">
          <mxGeometry relative="1" as="geometry" />
        </mxCell>
        <mxCell id="uqggrCIMywmLvtEO4xYs-11" value="" style="image;html=1;image=img/lib/clip_art/computers/Server_Rack_128x128.png" vertex="1" parent="1">
          <mxGeometry x="20" y="270" width="80" height="60" as="geometry" />
        </mxCell>
        <mxCell id="uqggrCIMywmLvtEO4xYs-12" value="Yahoo Finance API" style="text;html=1;align=center;verticalAlign=middle;whiteSpace=wrap;rounded=0;" vertex="1" parent="1">
          <mxGeometry x="20" y="210" width="80" height="50" as="geometry" />
        </mxCell>
        <mxCell id="uqggrCIMywmLvtEO4xYs-17" value="" style="shape=image;imageAspect=0;aspect=fixed;verticalLabelPosition=bottom;verticalAlign=top;image=data:image/svg+xml,PHN2ZyB4bWxucz0iaHR0cDovL3d3dy53My5vcmcvMjAwMC9zdmciIHZpZXdCb3g9IjAuNDk2MzQ2NDE0MDg5MjAyOSAwLjQ5OTc0Mzk5ODA1MDY4OTcgMTI3LjAwMzQwMjcwOTk2MDk0IDEyNy4wMDE4NjE1NzIyNjU2MiIgd2lkdGg9IjEyNy4wMDM0MDI3MDk5NjA5NCIgaGVpZ2h0PSIxMjcuMDAxODYxNTcyMjY1NjIiPiYjeGE7PHBhdGggZmlsbD0iIzAxN2NlZSIgZD0ibTIuNTQ0MSAxMjcgNjAuODA5LTYyLjMzMmExLjEyNCAxLjEyNCAwIDAgMCAwLjEzNTktMS40MzY4Yy0zLjY5NzctNS4xNjI1LTEwLjUyMS02LjA1NzgtMTMuMDUtOS41MjY4LTcuNDkwMy0xMC4yNzUtOS4zOTA5LTE2LjA5Mi0xMi42MS0xNS43MzFhMC45ODM3NCAwLjk4Mzc0IDAgMCAwLTAuNTg0NjQgMC4zMDg1bC0yMS45NjYgMjIuNTE4Yy0xMi42MzggMTIuOTQ0LTE0LjQ1NCA0MS40NzUtMTQuNzgyIDY1LjM2N2ExLjE5MDggMS4xOTA4IDAgMCAwIDIuMDQ3MyAwLjgzMjczeiIvPiYjeGE7PHBhdGggZmlsbD0iIzAwYWQ0NiIgZD0ibTEyNi45OSAxMjUuNDYtNjIuMzMyLTYwLjgxM2ExLjEyNCAxLjEyNCAwIDAgMC0xLjQzODktMC4xMzU5Yy01LjE2MjUgMy42OTk4LTYuMDU3OCAxMC41MjEtOS41MjY4IDEzLjA1LTEwLjI3NSA3LjQ5MDMtMTYuMDkyIDkuMzkwOS0xNS43MzEgMTIuNjFhMC45ODM3NCAwLjk4Mzc0IDAgMCAwIDAuMzA4NSAwLjU4MjQ4bDIyLjUxOCAyMS45NjZjMTIuOTQ0IDEyLjYzOCA0MS40NzUgMTQuNDU0IDY1LjM2NyAxNC43ODJhMS4xOTA4IDEuMTkwOCAwIDAgMCAwLjgzNDg5LTIuMDQwOHoiLz4mI3hhOzxwYXRoIGZpbGw9IiMwNGQ2NTkiIGQ9Im02MC43OTIgMTEyLjcyYy03LjA3Ni02LjkwMzUtMTAuMzU1LTIwLjU1OSAzLjIwNTgtNDguNzE5LTIyLjA0NiA5Ljg1MjUtMjkuNzcxIDIyLjgwMy0yNS45NzIgMjYuNTExeiIvPiYjeGE7PHBhdGggZmlsbD0iIzAwYzdkNCIgZD0ibTEyNS40NSAxLjAxMTMtNjAuODA3IDYyLjMzMmExLjEyMTggMS4xMjE4IDAgMCAwLTAuMTM1OSAxLjQzNjhjMy42OTk4IDUuMTYyNSAxMC41MTkgNi4wNTc4IDEzLjA1IDkuNTI2OCA3LjQ5MDMgMTAuMjc1IDkuMzkzIDE2LjA5MiAxMi42MSAxNS43MzFhMC45Nzk0MyAwLjk3OTQzIDAgMCAwIDAuNTg0NjQtMC4zMDg1bDIxLjk2Ni0yMi41MThjMTIuNjM4LTEyLjk0NCAxNC40NTQtNDEuNDc1IDE0Ljc4Mi02NS4zNjdhMS4xOTMgMS4xOTMgMCAwIDAtMi4wNDk1LTAuODMyNzN6Ii8+JiN4YTs8cGF0aCBmaWxsPSIjMTFlMWVlIiBkPSJtMTEyLjczIDY3LjIxMWMtNi45MDM1IDcuMDc2LTIwLjU1OSAxMC4zNTUtNDguNzIxLTMuMjA1OCA5Ljg1MjUgMjIuMDQ2IDIyLjgwMyAyOS43NzEgMjYuNTExIDI1Ljk3MnoiLz4mI3hhOzxwYXRoIGZpbGw9IiNlNDM5MjEiIGQ9Im0xLjAwMTcgMi41NDk1IDYyLjMzMiA2MC44MDdhMS4xMjQgMS4xMjQgMCAwIDAgMS40MzY4IDAuMTM1OWM1LjE2MjUtMy42OTk4IDYuMDU3OC0xMC41MjEgOS41MjY4LTEzLjA1IDEwLjI3NS03LjQ5MDMgMTYuMDkyLTkuMzkwOSAxNS43MzEtMTIuNjFhMC45OTAyMiAwLjk5MDIyIDAgMCAwLTAuMzA4NS0wLjU4NDYzbC0yMi41MTgtMjEuOTY2Yy0xMi45NDQtMTIuNjM4LTQxLjQ3NS0xNC40NTQtNjUuMzY3LTE0Ljc4MmExLjE5MDggMS4xOTA4IDAgMCAwLTAuODMyNzMgMi4wNDk1eiIvPiYjeGE7PHBhdGggZmlsbD0iI2ZmNzU1NyIgZD0ibTY3LjIxMiAxNS4yODRjNy4wNzYgNi45MDM1IDEwLjM1NSAyMC41NTktMy4yMDU4IDQ4LjcyMSAyMi4wNDYtOS44NTI1IDI5Ljc3MS0yMi44MDUgMjUuOTcyLTI2LjUxMXoiLz4mI3hhOzxwYXRoIGZpbGw9IiMwY2I2ZmYiIGQ9Im0xNS4yNzkgNjAuOGM2LjkwMzUtNy4wNzYgMjAuNTU5LTEwLjM1NSA0OC43MjEgMy4yMDU4LTkuODUyNS0yMi4wNDYtMjIuODAzLTI5Ljc3MS0yNi41MTEtMjUuOTcyeiIvPiYjeGE7PGNpcmNsZSBmaWxsPSIjNGE0ODQ4IiByPSIyLjcxODIiIGN5PSI2My45OTUiIGN4PSI2NC4wMDkiLz4mI3hhOzwvc3ZnPg==;" vertex="1" parent="1">
          <mxGeometry x="160" y="153" width="47" height="47" as="geometry" />
        </mxCell>
        <mxCell id="uqggrCIMywmLvtEO4xYs-18" value="Apache Airflow" style="text;html=1;align=center;verticalAlign=middle;resizable=0;points=[];autosize=1;strokeColor=none;fillColor=none;" vertex="1" parent="1">
          <mxGeometry x="210" y="161.5" width="100" height="30" as="geometry" />
        </mxCell>
        <mxCell id="uqggrCIMywmLvtEO4xYs-20" value="" style="shape=image;imageAspect=0;aspect=fixed;verticalLabelPosition=bottom;verticalAlign=top;image=data:image/svg+xml,PHN2ZyB4bWxuczp4bGluaz0iaHR0cDovL3d3dy53My5vcmcvMTk5OS94bGluayIgeG1sbnM9Imh0dHA6Ly93d3cudzMub3JnLzIwMDAvc3ZnIiB4bWw6c3BhY2U9InByZXNlcnZlIiBzdHlsZT0iZW5hYmxlLWJhY2tncm91bmQ6bmV3IDAgMCAxMjg0LjEgMTgxLjM7IiB2aWV3Qm94PSItMC4wNDQ1ODYxODE2NDA2MjUgMCAxMjg0LjE5NDQ1ODAwNzgxMjUgMTgxLjMxMzg0Mjc3MzQzNzUiIHk9IjBweCIgeD0iMHB4IiBpZD0iTGF5ZXJfMSIgdmVyc2lvbj0iMS4xIiB3aWR0aD0iMTI4NC4xOTQ0NTgwMDc4MTI1IiBoZWlnaHQ9IjE4MS4zMTM4NDI3NzM0Mzc1Ij4mI3hhOzxzdHlsZSB0eXBlPSJ0ZXh0L2NzcyI+JiN4YTsJLnN0MHtmaWxsOiMzOTAwN0Q7fSYjeGE7CS5zdDF7ZmlsbDojN0MxRkZDO30mI3hhOzwvc3R5bGU+JiN4YTs8Zz4mI3hhOwk8ZyB0cmFuc2Zvcm09InRyYW5zbGF0ZSgyNjAuOTU1NDIsNDEuMjEzODM5KSIgaWQ9ImxheWVyMSI+JiN4YTsJCTxnPiYjeGE7CQkJPHBhdGggZD0iTS0yNjEsMi45aDM4LjlsMjIuNyw1Ny45bDIyLjktNTcuOSYjMTA7JiM5OyYjOTsmIzk7JiM5O2gzNy45bC01NywxMzcuMmgtMzguMWwxNS42LTM2LjRMLTI2MSwyLjl6IiBjbGFzcz0ic3QwIiBpZD0icGF0aDExMzlfMDAwMDAxNzg4ODU2NzM1NTYzMzQwNDYwMzAwMDAwMTQ5NDQyMjc0MzEzMzUyNjQ0MzVfIi8+JiN4YTsJCQk8cGF0aCBkPSJNLTk5LjEsMC42Yy0yOS4yLDAtNDcuNywyNi4yLTQ3LjcsNTIuMyYjMTA7JiM5OyYjOTsmIzk7JiM5O2MwLDI5LjQsMjAuMyw1Mi43LDQ3LjEsNTIuN2MyMC4xLDAsMjcuNi0xMi4yLDI3LjYtMTIuMnY5LjVoMzMuOVYyLjloLTMzLjlWMTJDLTcyLjEsMTItODAuNSwwLjYtOTkuMSwwLjZ6IE0tOTEuOSwzMi43JiMxMDsmIzk7JiM5OyYjOTsmIzk7YzEzLjUsMCwyMC40LDEwLjcsMjAuNCwyMC4zYzAsMTAuNC03LjUsMjAuNS0yMC40LDIwLjVjLTEwLjgsMC0yMC41LTguOC0yMC41LTIwLjFDLTExMi40LDQyLTEwNC42LDMyLjctOTEuOSwzMi43eiIgY2xhc3M9InN0MCIgaWQ9InBhdGgxMTQxXzAwMDAwMTYzNzY3OTg2MTY5ODU4MzA0MzQwMDAwMDA4NjIwMjAxMDUxMzYxODk0MDQ3XyIvPiYjeGE7CQkJPHBhdGggZD0iTS0yNi41LDEwMi45Vi00MS4ySDl2NTMuNiYjMTA7JiM5OyYjOTsmIzk7JiM5O2MwLDAsOC40LTExLjcsMjYuMS0xMS43YzIxLjYsMCwzNC4yLDE2LjEsMzQuMiwzOS4xdjYzLjJIMzQuMVY0OC40YzAtNy44LTMuNy0xNS4zLTEyLjEtMTUuM2MtOC41LDAtMTMsNy42LTEzLDE1LjN2NTQuNUgtMjYuNXoiIGNsYXNzPSJzdDAiIGlkPSJwYXRoMTE0NV8wMDAwMDE0NzE4Mzk5ODg1MjA0NTc1NjE5MDAwMDAwNDIwNzcwMjM3OTg5MzYxMTQ0M18iLz4mI3hhOwkJCTxwYXRoIGQ9Ik0xMjkuOSwwLjZjLTMzLjUsMC01My40LDI1LjUtNTMuNCw1Mi43JiMxMDsmIzk7JiM5OyYjOTsmIzk7YzAsMzEsMjQuMSw1Mi4yLDUzLjUsNTIuMmMyOC41LDAsNTMuNC0yMC4zLDUzLjQtNTEuN0MxODMuNCwxOS40LDE1Ny4zLDAuNiwxMjkuOSwwLjZ6IE0xMzAuMiwzM2MxMS44LDAsMjAsOS44LDIwLDIwLjMmIzEwOyYjOTsmIzk7JiM5OyYjOTtjMCw5LTcuNiwyMC0yMCwyMGMtMTEuMywwLTE5LjktOS4xLTE5LjktMjAuMUMxMTAuMyw0Mi43LDExNy40LDMzLDEzMC4yLDMzeiIgY2xhc3M9InN0MCIgaWQ9InBhdGgxMTQ3XzAwMDAwMDk4OTA5ODI3MDg4ODU5OTgwNTgwMDAwMDEwMTMyNjk0MjE3MTM5NTMzNDYxXyIvPiYjeGE7CQkJPHBhdGggZD0iTTI0Mi41LDAuNmMtMzMuNSwwLTUzLjQsMjUuNS01My40LDUyLjcmIzEwOyYjOTsmIzk7JiM5OyYjOTtjMCwzMSwyNC4xLDUyLjIsNTMuNSw1Mi4yYzI4LjUsMCw1My40LTIwLjMsNTMuNC01MS43QzI5Ni4xLDE5LjQsMjcwLDAuNiwyNDIuNSwwLjZ6IE0yNDIuOCwzM2MxMS44LDAsMjAsOS44LDIwLDIwLjMmIzEwOyYjOTsmIzk7JiM5OyYjOTtjMCw5LTcuNiwyMC0yMCwyMGMtMTEuMywwLTE5LjktOS4xLTE5LjktMjAuMUMyMjMsNDIuNywyMzAuMSwzMywyNDIuOCwzM3oiIGNsYXNzPSJzdDAiIGlkPSJwYXRoMTE1M18wMDAwMDE3NDU5NTk2NTczODI4ODU3NzQ0MDAwMDAwMzc5Njk5NTYxMTUwMzU5NDk0M18iLz4mI3hhOwkJCTxwYXRoIGQ9Ik0zMjQuMSw1Ny45YzEzLDAsMjMuNiwxMC41LDIzLjYsMjMuNiYjMTA7JiM5OyYjOTsmIzk7JiM5O2MwLDEzLTEwLjUsMjMuNi0yMy42LDIzLjZjLTEzLDAtMjMuNi0xMC41LTIzLjYtMjMuNkMzMDAuNSw2OC40LDMxMS4xLDU3LjksMzI0LjEsNTcuOXoiIGNsYXNzPSJzdDAiIGlkPSJwYXRoMTE1NV8wMDAwMDEzMzUyMDA0OTY5Mzc1NjU5NjIyMDAwMDAxNzk0NTQ2MzgyOTkwNTEzMDkyM18iLz4mI3hhOwkJCTxwYXRoIGQ9Ik0zNTUuNCw0OS4ySDMxM2wzNy42LTkwLjRoNDIuMyYjMTA7JiM5OyYjOTsmIzk7JiM5O0wzNTUuNCw0OS4yeiIgY2xhc3M9InN0MCIgaWQ9InBhdGgxMTU3XzAwMDAwMDQxMjkzMzg0Njg2NDEwODIxMzAwMDAwMDAwNDI1MzkyNzI4OTczMDg1MDk2XyIvPiYjeGE7CQk8L2c+JiN4YTsJPC9nPiYjeGE7CTxnPiYjeGE7CQk8cGF0aCBkPSJNOTE1LjksMTQyLjdjLTEtMC4yLTIuMS0wLjUtMy4xLTAuOGMtNi0xLjgtMTEuNS01LjMtMTUuOS05LjhjLTguMy04LjItMTMtMTkuNS0xNC4zLTMwLjkmIzEwOyYjOTsmIzk7JiM5O2MtMS40LTExLjksMC43LTI0LjMsNi43LTM0LjdjMC4yLTAuNCwwLjUtMC44LDAuNy0xLjJjMTAuMy0xNi45LDI5LjgtMjQuOCw0Ny45LTE5LjRjNi4xLDEuOCwxMS4zLDUuMSwxNi4yLDEwLjgmIzEwOyYjOTsmIzk7JiM5O2MwLTMuMSwwLjEtNS4zLDAtNy41Yy0wLjEtMS44LDAuNi0yLjMsMi40LTIuM2M5LjgsMC4xLDE5LjYsMC4xLDI5LjMsMGMyLDAsMi41LDAuNywyLjUsMi42YzAsMjkuOC0wLjEsNTkuNiwwLDg5LjQmIzEwOyYjOTsmIzk7JiM5O2MwLDIuMS0wLjYsMi43LTIuNywyLjdjLTkuNi0wLjEtMTkuMS0wLjEtMjguNywwYy0yLjMsMC0zLTAuNy0yLjgtMi45YzAuMi0xLjksMC0zLjgsMC01LjdjLTEuMS0wLjYtMS40LDAuMy0xLjgsMC43JiMxMDsmIzk7JiM5OyYjOTtDOTQzLjIsMTQzLjUsOTI4LjUsMTQ1LjYsOTE1LjksMTQyLjd6IE05NTQuOSw5NC40YzAuMS0xMC44LTguMy0xOS4yLTE5LjEtMTkuM2MtMTAuOS0wLjEtMTkuNiw4LjEtMTkuNywxOC44JiMxMDsmIzk7JiM5OyYjOTtjLTAuMiwxMC42LDguNCwxOS4yLDE5LjIsMTkuNEM5NDYuMSwxMTMuNCw5NTQuOCwxMDUuMSw5NTQuOSw5NC40eiIgY2xhc3M9InN0MSIvPiYjeGE7CQk8cGF0aCBkPSJNMTIyMS42LDE0Mi43Yy0yNC4zLTUuNC0zOC4xLTI1LjItMzYuNi01MS40YzEuMi0xOS43LDEwLjYtMzQuNiwyOC45LTQyLjVjMTguMy03LjksMzYuNS02LjYsNTIuNSw2JiMxMDsmIzk7JiM5OyYjOTtjMTQuOCwxMS42LDE4LjYsMjguMSwxNy42LDQ2LjJjLTAuMSwyLjYtMiwyLTMuNCwyYy0xOS4yLDAtMzguNCwwLTU3LjcsMGMtNC43LDAtNS4xLDAuNi0zLjEsNWM0LjYsMTAuMiwyMC40LDEyLjcsMjguOCw0LjMmIzEwOyYjOTsmIzk7JiM5O2MyLjMtMi4zLDQtMi4zLDYuNy0xLjJjNy4zLDMsMTQuNiw1LjcsMjEuOSw4LjVjMy43LDEuNCwzLjcsMS40LDEuMyw0LjdjLTYuNyw5LjQtMTUuOCwxNS4yLTI2LjksMTgmIzEwOyYjOTsmIzk7JiM5O0MxMjQ0LjgsMTQ0LjQsMTIyNywxNDMuOSwxMjIxLjYsMTQyLjd6IE0xMjM0LjYsODMuMmM0LjEsMCw4LjIsMCwxMi4yLDBjNCwwLDQuNC0wLjUsMi43LTQuMmMtMi42LTUuOC03LjUtOC4zLTEzLjYtOC42JiMxMDsmIzk7JiM5OyYjOTtjLTYuNS0wLjMtMTIuMSwxLjYtMTUuNiw3LjZjLTAuNSwwLjktMC44LDEuOS0xLjIsMi44Yy0wLjcsMS43LTAuMSwyLjUsMS44LDIuNEMxMjI1LjUsODMuMiwxMjMwLjEsODMuMiwxMjM0LjYsODMuMnoiIGNsYXNzPSJzdDEiLz4mI3hhOwkJPHBhdGggZD0iTTExNDEuOSwxNDIuNGMtMS41LTAuMy0zLTAuNy00LjUtMS4yYy02LjYtMi4yLTEyLjktNS43LTE3LjctMTAuOGMtMTUuMi0xNS44LTE4LjEtMzQuNi0xMS4xLTU0LjcmIzEwOyYjOTsmIzk7JiM5O2M2LjgtMTkuNSwyMi0yOS4xLDQyLjEtMzEuM2M4LjUtMC45LDE2LjgsMC4yLDI0LjgsMy4zYzIuMiwwLjgsMy4yLDEuOSwzLjEsNC40Yy0wLjIsOC4zLTAuMiwxNi42LDAsMjQuOSYjMTA7JiM5OyYjOTsmIzk7YzAuMSwzLjEtMC43LDMuMS0zLjEsMS44Yy02LjEtMy4zLTEyLjYtNC40LTE5LjUtMy4xYy0xMCwyLTE2LDkuNS0xNS42LDE5LjNjMC4zLDkuMiw3LjEsMTYuMiwxNi45LDE3LjZjNi43LDAuOSwxMy0wLjMsMTguNy0zLjgmIzEwOyYjOTsmIzk7JiM5O2MyLjUtMS41LDIuNy0wLjcsMi43LDEuN2MtMC4xLDguNS0wLjEsMTcuMSwwLDI1LjZjMCwzLjQtMi43LDQtNS41LDQuN0MxMTYzLDE0My4zLDExNTIuMSwxNDQuNCwxMTQxLjksMTQyLjR6IiBjbGFzcz0ic3QxIi8+JiN4YTsJCTxwYXRoIGQ9Ik0xMDM3LjEsNTYuNWMwLjctMC4zLDAuOS0wLjMsMS0wLjRjOS41LTEyLjEsMjIuMS0xNC4yLDM1LjktMTBjMTMuOCw0LjIsMTkuNCwxNS4xLDIxLjIsMjguNiYjMTA7JiM5OyYjOTsmIzk7YzAuMywyLjEsMC40LDQuMywwLjQsNi41YzAsMTkuMSwwLDM4LjIsMC4xLDU3LjNjMCwyLjMtMC41LDMuMi0zLDMuMWMtOS41LTAuMS0xOS4xLTAuMi0yOC43LDBjLTIuNywwLTMuMS0wLjktMy4xLTMuMyYjMTA7JiM5OyYjOTsmIzk7YzAuMS0xNS43LDAtMzEuNCwwLjEtNDcuMWMwLTIuMy0wLjEtNC41LTAuNy02LjhjLTEuNC01LjItNC44LTguMi05LjgtOC42Yy01LjYtMC40LTkuOCwyLTEyLDcuMWMtMS4zLDMtMS41LDYuMS0xLjUsOS40JiMxMDsmIzk7JiM5OyYjOTtjMCwxNS4yLTAuMSwzMC41LDAuMSw0NS43YzAsMi44LTAuNiwzLjctMy41LDMuNmMtOS40LTAuMi0xOC45LTAuMS0yOC4zLDBjLTIuMSwwLTMtMC41LTIuOS0yLjhjMC4xLTI5LjcsMC4xLTU5LjMsMC04OSYjMTA7JiM5OyYjOTsmIzk7YzAtMi4zLDAuNy0yLjksMi45LTIuOWM5LjcsMC4xLDE5LjMsMC4xLDI5LDBjMi4yLDAsMy4xLDAuNiwyLjksMi45QzEwMzcsNTEuOSwxMDM3LjEsNTQuMSwxMDM3LjEsNTYuNXoiIGNsYXNzPSJzdDEiLz4mI3hhOwkJPHBhdGggZD0iTTgxNC4xLDU3LjNjMTAuNC0xMy4xLDIzLjItMTUuNiwzNy40LTExLjFjMTIuOCw0LDE4LjUsMTQuMywyMC42LDI2LjljMC41LDIuOCwwLjYsNS43LDAuNiw4LjUmIzEwOyYjOTsmIzk7JiM5O2MwLjEsMTguOSwwLDM3LjgsMC4xLDU2LjZjMCwyLjUtMC41LDMuMy0zLjIsMy4zYy05LjMtMC4yLTE4LjctMC4yLTI4LDBjLTIuOCwwLTMuNy0wLjYtMy42LTMuNWMwLjEtMTUuNiwwLjEtMzEuMiwwLjEtNDYuNyYjMTA7JiM5OyYjOTsmIzk7YzAtMi40LTAuMS00LjgtMC43LTcuMWMtMS40LTUtNC44LTgtOS42LTguNGMtNS41LTAuNS05LjcsMS44LTExLjksNi43Yy0xLjQsMi45LTEuNyw2LjEtMS43LDkuM2MwLDE1LjUtMC4xLDMwLjksMC4xLDQ2LjQmIzEwOyYjOTsmIzk7JiM5O2MwLDIuOC0wLjgsMy40LTMuNCwzLjRjLTkuNC0wLjEtMTguOS0wLjEtMjguMywwYy0yLjQsMC0zLjEtMC42LTMuMS0zYzAuMS0yOS42LDAuMS01OS4xLDAtODguN2MwLTIuMiwwLjYtMywyLjgtMi45JiMxMDsmIzk7JiM5OyYjOTtjOS43LDAuMSwxOS4zLDAuMSwyOSwwYzIuNSwwLDMuMSwwLjksMywzLjJDODEzLjksNTIuMSw4MTQuMSw1NC4yLDgxNC4xLDU3LjN6IiBjbGFzcz0ic3QxIi8+JiN4YTsJCTxwYXRoIGQ9Ik02OTUuMywxMDguMmMwLDEwLTAuMSwyMCwwLjEsMzBjMCwyLjgtMC45LDMuNC0zLjUsMy4zYy05LjMtMC4xLTE4LjctMC4yLTI4LDBjLTIuNiwwLTMuMi0wLjgtMy4yLTMuMyYjMTA7JiM5OyYjOTsmIzk7YzAuMS0xOS45LDAtMzkuOCwwLjEtNTkuN2MwLTMuMS0wLjgtNC4xLTQtNGMtMi44LDAuMi02LjQsMS4zLTguMi0wLjZjLTEuNy0xLjgtMC41LTUuNC0wLjUtOC4yYy0wLjEtNS4zLDAuMS0xMC43LTAuMS0xNiYjMTA7JiM5OyYjOTsmIzk7Yy0wLjEtMi4yLDAuNS0zLjEsMi44LTIuOWMyLjQsMC4yLDQuOC0wLjEsNy4yLDAuMWMyLjEsMC4xLDIuNy0wLjYsMi43LTIuN2MtMC4xLTUuNSwwLjYtMTAuOSwyLjItMTYuMiYjMTA7JiM5OyYjOTsmIzk7YzQuOS0xNi4yLDE3LjgtMjYsMzUuOC0yNy4xYzYuMi0wLjQsMTIuMywwLDE4LjIsMS45YzIsMC42LDMsMS41LDIuOSwzLjhjLTAuMiw3LjYtMC4xLDE1LjIsMCwyMi45YzAsMi4yLTAuMiwzLjEtMi44LDIuMSYjMTA7JiM5OyYjOTsmIzk7Yy00LTEuNS04LjItMS44LTEyLjQtMC43Yy02LjMsMS43LTEwLjQsOC4xLTkuNSwxNC40YzAuMywyLDEuNiwxLjYsMi44LDEuNmM1LjcsMCwxMS40LDAuMSwxNy4xLDBjMi41LTAuMSwzLjYsMC40LDMuNSwzLjMmIzEwOyYjOTsmIzk7JiM5O2MtMC4yLDctMC4yLDE0LjEsMCwyMS4xYzAuMSwyLjYtMC41LDMuNi0zLjMsMy41Yy01LjYtMC4yLTExLjIsMC4xLTE2LjctMC4xYy0yLjktMC4xLTMuMywxLTMuMywzLjUmIzEwOyYjOTsmIzk7JiM5O0M2OTUuMyw4OC4xLDY5NS4zLDk4LjEsNjk1LjMsMTA4LjJ6IiBjbGFzcz0ic3QxIi8+JiN4YTsJCTxwYXRoIGQ9Ik03NjUsOTQuM2MwLDE0LjctMC4xLDI5LjMsMC4xLDQ0YzAsMi41LTAuNiwzLjMtMy4yLDMuM2MtOS41LTAuMi0xOS4xLTAuMS0yOC42LDBjLTIuMSwwLTMtMC41LTMtMi44JiMxMDsmIzk7JiM5OyYjOTtjMC4xLTI5LjcsMC4xLTU5LjMsMC04OWMwLTIuMiwwLjYtMywyLjktMi45YzkuNywwLjEsMTkuMywwLjEsMjksMGMyLjYsMCwyLjksMSwyLjksMy4yQzc2NSw2NC43LDc2NSw3OS41LDc2NSw5NC4zeiIgY2xhc3M9InN0MSIvPiYjeGE7CQk8cGF0aCBkPSJNNzY3LjEsMTkuMmMwLDEwLjUtOC44LDE5LjEtMTkuNSwxOWMtMTAuNS0wLjEtMTkuMi04LjctMTkuMi0xOUM3MjguMiw4LjcsNzM3LDAsNzQ3LjcsMCYjMTA7JiM5OyYjOTsmIzk7Qzc1OC41LDAsNzY3LjEsOC42LDc2Ny4xLDE5LjJ6IiBjbGFzcz0ic3QxIi8+JiN4YTsJPC9nPiYjeGE7PC9nPiYjeGE7PC9zdmc+;" vertex="1" parent="1">
          <mxGeometry x="10" y="194.56" width="110" height="15.44" as="geometry" />
        </mxCell>
        <mxCell id="uqggrCIMywmLvtEO4xYs-21" value="Task 4&lt;div&gt;format_prices&lt;/div&gt;" style="rounded=0;whiteSpace=wrap;html=1;" vertex="1" parent="1">
          <mxGeometry x="630" y="270" width="120" height="60" as="geometry" />
        </mxCell>
        <mxCell id="uqggrCIMywmLvtEO4xYs-25" value="" style="shape=image;imageAspect=0;aspect=fixed;verticalLabelPosition=bottom;verticalAlign=top;image=data:image/svg+xml,PHN2ZyB4bWxuczp4bGluaz0iaHR0cDovL3d3dy53My5vcmcvMTk5OS94bGluayIgeG1sbnM9Imh0dHA6Ly93d3cudzMub3JnLzIwMDAvc3ZnIiB2aWV3Qm94PSIwLjE4NzY5NjQ1NjkwOTE3OTcgMCA1NjIuNDkxMDI3ODMyMDMxMiAxMTM3LjI2OTA0Mjk2ODc1IiB3aWR0aD0iMTIyOS4zNzEzNzUzMDQ0MSIgaGVpZ2h0PSIyNDc2LjY0ODQ1MDAwODI1NCI+PHBhdGggZmlsbD0iI2Y4ZTZlYSIgZD0iTTM1OSAxMTM1LjQ0MmMtMS4zNzUtLjc0LTE2Ljc4OC0xNS42Ny0zNC4yNS0zMy4xOEwyOTMgMTA3MC40MjhWODYzLjM4YzAtMTEzLjg3Ni0uMjg5LTIwNy4zMzYtLjY0MS0yMDcuNjktLjY0OS0uNjQ3LTUyLjY5MiAyNS41MDgtMjA1Ljc3MyAxMDMuNDE1LTQ2LjE1MiAyMy40ODgtODQuNTQ4IDQyLjQ2Mi04NS4zMjQgNDIuMTY0LS45MDYtLjM0Ny0xLjIwNi0xLjM1OS0uODM3LTIuODI3LjMxNS0xLjI1NyAxLjAxOC02LjQ4MyAxLjU2Mi0xMS42MTQgMi43NTQtMjUuOTg1IDIzLjI1Ni04Ny4wMjggNDUuMDA2LTEzNCA1OS4yNzItMTI4LjAwMyAxNTUuMTc0LTIzNC4wODcgMjc3LjE5LTMwNi42MTcgMTkuOTEzLTExLjgzNyAzNi42NC0yMC40OTQgMzguMzM3LTE5Ljg0MyAxLjI5NC40OTcgMS40OCAxMy45NyAxLjQ4IDEwNy4xIDAgNzYuMjg3LjMxIDEwNi41MzEgMS4wOTEgMTA2LjUzMS42IDAgNS4xNzQtMi4xMDkgMTAuMTY1LTQuNjg2IDM1LjAwMy0xOC4wNzkgNjAuNDA5LTUxLjg0OCA2OC45LTkxLjU4IDIuODcxLTEzLjQzNiAzLjEzLTM3LjkyMy41MzctNTAuOTE2LTQuNzYzLTIzLjg3NC0xNS43NTYtNDYuMzM0LTMxLjI1Mi02My44NTItNy42NTItOC42NS0zMy4wNTctMzUuMzY1LTc3Ljk0Ni04MS45NjYtNjcuODc1LTcwLjQ2Mi04MC4zMDMtODMuOTMxLTg4LjI1NS05NS42NS01LjgzNC04LjYtMTAuODctMTkuMTEzLTEzLjkyMi0yOS4wNjItMi40NDctNy45NzktMi43LTEwLjMwNy0yLjc1NC0yNS4yODgtLjA2NS0xOC4yODcuOTc0LTIzLjk3OCA2Ljk4NS0zOC4yNDggMTEuNi0yNy41MzcgNDEuODIyLTUzLjIyMyA2Ni45NTEtNTYuOTAzIDE3LjYyNy0yLjU4IDM5Ljg5OC0yLjA4MyA1NC4zODYgMS4yMTcgMTEuODEgMi42OSAzMC45NDIgMTQuMjI1IDQ0LjA1NyAyNi41NjIgMTUuMzk2IDE0LjQ4NCAyMy4xNDcgMjYuMDQ1IDgxLjA0IDEyMC44NzIgNjguMzE1IDExMS44OTggNzYuNDYxIDEyNS42OTIgNzcuNjI4IDEzMS40NDMgMS4xNTUgNS42OTIuMzE5IDguMDk3LTIuNzkgOC4wMjctMi41ODktLjA1OC0xLjgwNS43NDUtMTI0LjgtMTI3Ljk3LTEwLjc3NC0xMS4yNzUtMjkuNTM3LTMxLjA3NS00MS42OTQtNDQtMzEuNzI5LTMzLjczMS00NC44OTQtNDYuNDQtNTAuODYzLTQ5LjA5OC03LjY0MS0zLjQwNC0xOC4yNDItMy4yNDgtMjUuNjI1LjM3OC0xNC40NzYgNy4xMDktMjEuMzI4IDIzLjUwNS0xNS44NjcgMzcuOTcgMi43MDggNy4xNzEtMS4wNjQgMy4wNjEgODcuODczIDk1Ljc1IDM5Ljg0NCA0MS41MjUgNzUuODM0IDc5LjU1IDc5Ljk3OSA4NC41IDY2Ljg4NSA3OS44ODQgNjEuNDQ3IDE5OC41ODMtMTIuNDYgMjcxLjk5My0xNi45NyAxNi44NTUtMzMuOTM0IDI4LjQwMy02NS4zNjQgNDQuNDkzLTEwLjcyNSA1LjQ5LTIwLjk2MiAxMC44ODMtMjIuNzUgMTEuOTg0bC0zLjI1IDJ2MjU3LjkzNGMwIDE0MS44NjMtLjI3MyAyNTguNjQ0LS42MDcgMjU5LjUxNC0uNzAzIDEuODMzLTEuMDMgMS44MzUtNC4zOTMuMDI0ek0xODEuMzcgNjM1LjA1N2M4Ny41NDgtNDQuOTM2IDEwNS42MTctNTQuNDQyIDEwOC4xODMtNTYuOTEyIDEuNjEtMS41NDggMi4zMTItMy43OCAyLjc5Mi04Ljg1Ny45NjktMTAuMjYzLjc4Mi0xMTguMDkxLS4yMDYtMTE4LjcwMi0yLjE3Ni0xLjM0NS0zOC45NSAzMS4zMzgtNjMuNjM5IDU2LjU2LTQyLjY4MiA0My42LTc4LjM2NSA5Mi44MzQtMTA3LjcgMTQ4LjU5NS0zLjgzNiA3LjI5Mi02LjY1NiAxMy4yNTktNi4yNjcgMTMuMjU5czMwLjQ2Ny0xNS4yNzQgNjYuODM4LTMzLjk0M3oiLz48cGF0aCBmaWxsPSIjZjVkYmUwIiBkPSJNMzI2Ljc5NCAxMTAzLjI0N0wyOTMgMTA2OS40OTNWNjUzLjgzNWwtNjEuNzUgMzEuMjE2Yy0zMy45NjIgMTcuMTctOTkuMTg5IDUwLjI4MS0xNDQuOTQ3IDczLjU4M0M0MC41NDUgNzgxLjkzNSAyLjM2IDgwMSAxLjQ0NSA4MDFjLTEuMzAzIDAtMS41MTctLjU3OS0uOTg5LTIuNjguMzctMS40NzUgMS4wNjQtNi4wODggMS41NDMtMTAuMjUgMi4wNDQtMTcuNzg3IDE2LjIxMi02NC40NTcgMzAuMTUtOTkuMzE1IDYwLjI4NS0xNTAuNzY4IDE2OC42MjMtMjczLjY4NSAzMTAuOC0zNTIuNjIyIDkuMDQ3LTUuMDIzIDE3LjIxMS05LjEzMyAxOC4xNDMtOS4xMzMuOTMyIDAgMS45NjcuNzEyIDIuMzAxIDEuNTgyLjMzNC44Ny42MDcgNDkuMDUuNjA3IDEwNy4wNjd2MTA1LjQ4NmwyLjI1LS42OTZjMy4yNTEtMS4wMDUgOC45ODItMy45OSAxNi41OTQtOC42NDUgMzAuNzQ5LTE4LjgwMyA1MS44NzktNDcuNzggNjAuOTA0LTgzLjUyIDIuNTA2LTkuOTI4IDIuNzIxLTEyLjM0NSAyLjczNi0zMC43NzQuMDE3LTIxLjM1Ni0uODE5LTI3LjIwOC02LjIxNC00My41LTMuNDU0LTEwLjQzNC0xMi4yOTItMjcuMTgxLTE5LjIzNC0zNi40NTItOC4wNDMtMTAuNzQtMjUuMDQ2LTI4Ljc5OS0xMTIuNTQtMTE5LjUyNy0yNy45OTUtMjkuMDMtNTAuNjQ3LTUzLjQ5NS01NS45ODktNjAuNDY5LTI0LjIxNS0zMS42MTUtMjguODU5LTY3Ljg1Ny0xMi45ODgtMTAxLjM2IDUuNjg0LTEyIDExLjI5LTE5Ljc3NyAyMS4xMjQtMjkuMzA1IDEzLjM2OS0xMi45NTMgMzAuOTEtMjIuNjU3IDQ1LjI0LTI1LjAyOCAxMS42NzQtMS45MyAzMC43MzctMi4xNjUgNDEuNzgyLS41MTIgMjYuNDU5IDMuOTYgNTEuMDgzIDIwLjQ4NyA3MS45NzYgNDguMzEgMTAuODI4IDE0LjQxOCA0Mi4yMjUgNjUuMDEgMTE4LjIyNCAxOTAuNDk2IDIzLjAyIDM4LjAxIDI2LjYzMiA0NS40OTMgMjMuNDgyIDQ4LjY0My0yLjc0NiAyLjc0NiAxLjk0IDcuNDA3LTEwNS4zOTgtMTA0Ljg0My0yMi44NTQtMjMuOS01MS43MDYtNTQuMjUzLTY0LjExNi02Ny40NTMtMzMuOTAzLTM2LjA2Mi00NC4xMS00NS43MTItNTEuMTI2LTQ4LjMzNy0xNi4xMi02LjAzLTMyLjMwMS40MDUtNDAuMzYgMTYuMDUzLTMuODA4IDcuMzkzLTMuODU2IDE2LjkwOC0uMTI2IDI0Ljk5NiAzLjE1MyA2Ljg0LTEuNTgyIDEuNzIxIDg4LjE1NiA5NS4yODggMzkuNTYyIDQxLjI1IDc0LjgzIDc4LjM3NSA3OC4zNzUgODIuNSAyNC40MzIgMjguNDM2IDQwLjgxNCA2Ni4wMDEgNDUuNzkgMTA1IDIuMDY5IDE2LjIxNCAxLjU2NSA0My4xMTctMS4wODUgNTgtNy40ODQgNDIuMDI5LTI2LjYxNSA3OS4wODgtNTUuOTkyIDEwOC40NjUtMTguMjY1IDE4LjI2Ni0zMy4yOTQgMjguNDE3LTY5Ljk2NSA0Ny4yNThsLTIxIDEwLjc5LS41MDUgMjU5Ljk5M2MtLjI3NyAxNDIuOTk3LS42MTUgMjYwLjEwNi0uNzUgMjYwLjI0NC0xLjIxIDEuMjM0LTYuOTg1LTQuMDczLTM2LjQ1LTMzLjUwM3pNMTg0Ljc1IDYzMy45M2M5My40MTYtNDcuODgyIDEwMi4zNDctNTIuNjIyIDEwNS41MDEtNTYuMDFsMi43NS0yLjk1MnYtNjIuOTg0YzAtMzQuNjQxLS4yOTgtNjIuOTg0LS42NjMtNjIuOTg0LS4zNjQgMC00LjA3NyAyLjc5LTguMjUgNi4yLTUwLjM0NSA0MS4xMzktOTIuOTI4IDg3LjczOC0xMjcuNzczIDEzOS44MjQtMTkuNjM4IDI5LjM1Ni00NS44MDQgNzYuMTIzLTQxLjc0MiA3NC42MDcgMS4wNi0uMzk2IDMyLjY0LTE2LjQ2MSA3MC4xNzctMzUuN3oiLz48cGF0aCBmaWxsPSIjZjNkNWRhIiBkPSJNMzQzLjc2NCAxMTIwLjI1Yy05LjMzOC05LjIxMy0yNC41OC0yNC43MDctMzMuODctMzQuNDMzTDI5MyAxMDY4LjEzNFY4NjEuMDY3QzI5MyA3NDcuMTggMjkyLjgzMSA2NTQgMjkyLjYyNSA2NTRjLS41MDkgMC0xMjIuMTY0IDYxLjYyMy0yMTQuNDU2IDEwOC42MzFDMzYuNzM3IDc4My43MzQgMi4xNTEgODAxIDEuMzExIDgwMWMtMS4xMzcgMC0xLjM2NS0uNjUtLjg5LTIuNTQ0LjM1Mi0xLjQgMS4wNS01Ljc4OSAxLjU1My05Ljc1NC41MDMtMy45NjUgMi43LTE0LjE4MyA0Ljg4NC0yMi43MDYgMTEuMjI2LTQzLjgyNSAyNi4yNDUtODMuNDE1IDQ5LjEyNi0xMjkuNDk2IDE0LjQ4OC0yOS4xNzcgMjYuOTQ2LTUwLjk0MiA0My41MDMtNzZDMTU0LjAzNCA0NzcuOTQyIDIyOC4wMjUgNDA2LjQ2NSAzMTQgMzUzLjI3NSAzMzIuMDcgMzQyLjA5NSAzNTkuMzE0IDMyNyAzNjEuNDIgMzI3YzEuNDMgMCAxLjU4IDEwLjExIDEuNTggMTA2LjUzMSAwIDkwLjE1Ny4yMTQgMTA2LjYxNCAxLjM5NCAxMDcuMDY3Ljc2Ni4yOTQgNC41MDYtMS4wMzMgOC4zMS0yLjk1IDMxLjItMTUuNzExIDU1LjY4OS00My40MDIgNjcuMTc1LTc1Ljk2IDUuMzU0LTE1LjE3NyA3LjM5LTI3LjI4NCA3LjQzMy00NC4xODguMDY5LTI3LjY4NC03LjEwNi01MS44MTktMjIuMTQ3LTc0LjUtNy45MjQtMTEuOTUtMTYuMzk0LTIxLjE0My04Ni42MTktOTQuMDItNzQuNDczLTc3LjI4Ny04My4yNjgtODYuODgyLTkyLjIxNy0xMDAuNjEyLTEwLjg2Ni0xNi42NjktMTUuNjI0LTMyLjUxMy0xNS41NzgtNTEuODY4LjAxNy03LjA5OC42Ny0xNC45MDYgMS41OTctMTkuMTE1QzIzOS4xNCA0Ni41NiAyNTkuMzc0IDIxLjQ3NSAyODguMzA4IDggMzAxLjA1OCAyLjA2NCAzMTEuMzk0IDAgMzI4LjM3NiAwYzI0LjEzIDAgNDEuMDkgNS4zMjMgNjAuNDA5IDE4Ljk1OSAyMi4zMTQgMTUuNzUgMzAuNTcgMjcuMDgzIDg2LjcxOCAxMTkuMDQ1IDY0LjQzOSAxMDUuNTQxIDg0LjggMTM5LjczIDg2LjAyMiAxNDQuNDQuNzIxIDIuNzggMS4yMzUgNS4wNjkgMS4xNDMgNS4wODgtLjA5Mi4wMTktLjkzNS42Mi0xLjg3MSAxLjMzNS0xLjQ4MSAxLjEzLTIuMzguNjctNi44OTItMy41MzMtNy4xMzctNi42NS0xMjcuNjE1LTEzMi40NTctMTY1LjA5NC0xNzIuMzk5LTMzLjY1NC0zNS44NjMtMzguNzE0LTQwLjYyOC00Ny4zNDgtNDQuNTgtMTUuMjgyLTYuOTk3LTMzLjQ5Ny0uMTY3LTQxLjE1NyAxNS40My0yLjMyNyA0Ljc0LTIuODAyIDYuOTk0LTIuNzg1IDEzLjIxNS4wMTggNi4yODIuNSA4LjQ1MSAyLjk2NiAxMy4zNTggMi45ODYgNS45NDIgNC4wNjIgNy4wODcgMTMyLjgyNCAxNDEuMzQ1IDE2LjM5NSAxNy4wOTYgMzIuODIzIDM0Ljg0NCAzNi41MDQgMzkuNDQgNDguNDIzIDYwLjQ1MyA1Ny43ODcgMTQyLjkyIDI0LjE1MiAyMTIuNzExLTEwLjgxNSAyMi40NDEtMjMuNDY4IDM5LjczLTQyLjI1NiA1Ny43NDItMTcuOTEyIDE3LjE3Mi0zMC41MjkgMjUuNTQ1LTY2LjIxMSA0My45NDMtMTEuNTUgNS45NTUtMjEuMzMgMTEuMzA3LTIxLjczNSAxMS44OTQtLjQwNC41ODctLjc0MSAxMTcuNzMtLjc1IDI2MC4zMTctLjAxMSAxOTIuMDEzLS4zMDggMjU5LjI1LTEuMTQ1IDI1OS4yNS0uNjIxIDAtOC43Ny03LjUzNy0xOC4xMDYtMTYuNzV6TTEyOC4yMDcgNjYzLjExMmM3LjMxMS0zLjc4OSA0MC4yOTMtMjAuNzM2IDczLjI5My0zNy42NiA3OC40NTItNDAuMjM1IDg3LjY3LTQ1LjE0IDg5LjcyOC00Ny43NTYgMS41OTUtMi4wMjcgMS43My03LjA1MiAxLjc1LTY1LjQ0Ni4wMTItMzUuMTc0LS4zNjQtNjMuMjUtLjg0Ny02My4yNS0uNDc4IDAtNy43OSA1LjgwMy0xNi4yNSAxMi44OTQtNTQuOTkzIDQ2LjEwMy0xMDAuMjQ1IDk4Ljk3Ny0xMzYuNiAxNTkuNjA2QzEzMC43NTUgNjM1LjcxOSAxMTMgNjY4LjA3IDExMyA2NjkuMzg2YzAgMS4zNDcgMi40NDguMzM3IDE1LjIwNy02LjI3NHoiLz48cGF0aCBmaWxsPSIjZjBjZGQzIiBkPSJNMzI3LjcwNSAxMTAzLjc3MWMtMTguMDM4LTE4LjI5OS0zMy4yMjUtMzQuMzEzLTMzLjc1LTM1LjU4Ni0uNTk2LTEuNDQ1LS45NTUtNzkuNzU1LS45NTUtMjA4LjI1QzI5MyA3NDYuNjcgMjkyLjcxIDY1NCAyOTIuMzU4IDY1NGMtLjczNSAwLTU4LjU2NSAyOS4yNTctMTk0Ljk1MiA5OC42M0M0NS4xMDQgNzc5LjIzNSAxLjc0MyA4MDEgMS4wNDggODAxYy0uODMgMC0xLjA2MS0uODEyLS42NzMtMi4zNTkuMzI2LTEuMjk3IDEuMDY0LTUuNjg0IDEuNjQtOS43NSAzLjczNC0yNi4zNCAyMi4wMS04Mi4yOSA0MC40NjgtMTIzLjg5MUM5Ny4yNDMgNTQxLjU4NSAxODIuOTQ4IDQ0MC4xMTkgMjk1LjUgMzY1LjQ1NWMyNy44MTItMTguNDUgNjQuMzU1LTM5LjI4IDY2LjU0LTM3LjkzLjYwNC4zNzMuOTYgNDAuMDg5Ljk2IDEwNy4wMzQgMCA5Ni4zNzIuMTUgMTA2LjQ0MSAxLjU4MSAxMDYuNDQxIDIuNDQ3IDAgMTUuMDA5LTYuNTc0IDI0LjQxOS0xMi43NzkgMTAuMzIxLTYuODA1IDI3LjU5LTIzLjg2NCAzNC42ODctMzQuMjY0IDEwLjUwOC0xNS40IDE4LjMxLTM0LjExNCAyMS45NjgtNTIuNjg3IDIuMzQ3LTExLjkyMiAyLjM1Ni0zNi41NzcuMDE2LTQ4LjQ1Mi0zLjQ0NS0xNy40OS0xMC4yNDctMzQuMjM2LTE5LjkyNi00OS4wNTgtOC40NDMtMTIuOTMtMTIuNzkzLTE3LjY2NS05MS4xODYtOTkuMjYtNzMuOS03Ni45MTgtNzUuMjE2LTc4LjMyOS04My40ODctODkuNDg0LTIxLjk0MS0yOS41OTItMjYuMzMtNjMuMTE4LTEyLjU3Ni05Ni4wNyAxMi4wNDktMjguODY2IDQwLjcyNC01Mi4xMzggNzAuOC01Ny40NTggMTAuNDEyLTEuODQyIDI3LjcxMi0xLjg2MiAzOC43OTQtLjA0NSAxNS45MzkgMi42MTQgMzEuODI4IDEwLjI4MyA0Ny41MiAyMi45MzUgMTguOTk2IDE1LjMxNyAyNi4xMTIgMjUuNjQgOTAuMzg2IDEzMS4xMjIgNjcuMDU4IDExMC4wNTIgNzQuODM5IDEyMy4yMTUgNzUuNTIgMTI3Ljc1Ny43MzQgNC44OTUtLjE5NCA2LjI5Ny0zLjQ3NSA1LjI1Ni0xLjA2OC0uMzM5LTE2Ljk0NS0xNi4yMy0zNS4yODMtMzUuMzE1LTY1LjI4OC02Ny45NDQtMTAzLjY0NS0xMDguMTY3LTEzMS4zMzktMTM3LjcyNkMzNDcuNzU2IDY4Ljg2NyAzNDMuNzY2IDY1LjY3NyAzMjkgNjUuNTZjLTYuMjQ2LS4wNS04LjQ0My40MDMtMTMuMTQyIDIuNzEtNi4yNyAzLjA4LTEyLjUyMiA5LjI3OC0xNi4wMiAxNS44OC0xLjg0NCAzLjQ4Mi0yLjMwNyA1Ljk0Ni0yLjMyIDEyLjM1LS4wMjYgMTEuNTcyIDIuNTkxIDE2LjMxNyAxNy43ODUgMzIuMjU0IDYuNjg0IDcuMDEgNDIuMjg4IDQ0LjE3NSA3OS4xMiA4Mi41OSAzNi44MyAzOC40MTMgNjkuODQyIDczLjI4OCA3My4zNiA3Ny41IDMzLjMwOCAzOS44ODYgNTAuMjg3IDk0Ljg1MyA0NS4xOTEgMTQ2LjMtNS42OSA1Ny40NDQtMzQuMTMzIDEwOC4xOTctNzkuNTkzIDE0Mi4wMjMtMTIuMzEgOS4xNi0yMC42NCAxNC4wNTItNDguMTIgMjguMjY0TDM2My41IDYxNi42ODVsLS4yNTIgMjYwLjE1OGMtLjIgMjA3LjEtLjUwNiAyNjAuMTYxLTEuNSAyNjAuMTc4LS42ODYuMDEyLTE2LjAwNi0xNC45NS0zNC4wNDMtMzMuMjV6TTE4MyA2MzUuMjQ3YzkxLjU1Ny00Ni45NyAxMDUuMzYyLTU0LjI1OCAxMDcuNzUtNTYuODg0bDIuMjUtMi40NzV2LTYzLjQ0NGMwLTQwLjg4OC0uMzUtNjMuNDQ0LS45ODMtNjMuNDQ0LTEuNDIgMC0yNC45NTYgMTkuODM4LTQxLjgzIDM1LjI1OC00Mi4wODYgMzguNDU4LTgzLjk0NyA5MC43MTItMTE0LjQ5NCAxNDIuOTJDMTI1LjcxIDY0NC4yNCAxMTMgNjY4LjEzOSAxMTMgNjY5Ljg0OGMwIDEuMzg0LTMuOTgyIDMuMzUyIDcwLTM0LjYwMXoiLz48cGF0aCBmaWxsPSIjZWVjM2NiIiBkPSJNMzI3LjU3NSAxMTAzLjM4M2wtMzMuNDkyLTMzLjg4My0uMDQyLTIwNy4xOTFjLS4wMjgtMTM5LjgzMy0uMzczLTIwNy4zOTYtMS4wNjItMjA3LjgyMi0xLjA0LS42NDMtNjEuNTk5IDI5LjcyNy0yMDguNjY5IDEwNC42NDVDMzkuMTA2IDc4Mi4xNiAxLjYxMyA4MDEgLjk5MyA4MDFjLS42MiAwLS44ODItLjc4Ny0uNTgzLTEuNzUuMy0uOTYzIDEuMDAzLTUuMDA1IDEuNTYyLTguOTgyQzUuMzAzIDc2Ni41NTcgMjAuMTc3IDcxOC4zNiAzNS41MzkgNjgxLjUgNjYuNzUzIDYwNi42MDEgMTA4LjM2IDU0MC4yMTIgMTYwLjU3IDQ4MmMxNC4zMTgtMTUuOTY0IDQ4LjU0LTQ5LjYyNCA2My40My02Mi4zODggMjcuNTA1LTIzLjU4IDU2Ljk3LTQ1LjMwOCA4Ni02My40MTkgMjAuMDA2LTEyLjQ4MSA0OC4yNDgtMjguMzYzIDUwLjc4Ni0yOC41NiAxLjYwNi0uMTI1IDEuNzQ2IDYuNjIxIDIuMjE0IDEwNi44NjcuNDk3IDEwNi4zMDQuNTEzIDEwNi45OTggMi41IDEwNi42NzMgMi43MjMtLjQ0NiAxNS4yOS03LjI1IDIzLjkxNy0xMi45NSA5LjY1Ny02LjM4IDI4Ljk4OC0yNS44NDggMzUuNDctMzUuNzIzIDkuOTA4LTE1LjA5MyAxNy4wMjItMzIuMzY2IDIwLjc5OC01MC41IDIuNDcxLTExLjg2NCAyLjQ1OS0zOC4yMzgtLjAyMy01MC00LjYyOS0yMS45MzYtMTUuMjUzLTQ0LjYxOC0yOC4xMDYtNjAtNi4xODMtNy40LTI4LjI0Mi0zMC43MTMtNzguNTM4LTgzLTc3LjE0LTgwLjE5NC04Mi41Ni04Ni4wOS05MS41OTctOTkuNjEtNi40My05LjYyMi0xMC41NzktMTguNDU5LTEzLjY2NC0yOS4xMDEtMS45NTMtNi43NC0yLjI0OS0xMC4wMS0yLjE5NS0yNC4yODkuMDU2LTE0Ljk3Ny4zMS0xNy4zMTEgMi43NTYtMjUuMjg4IDkuMjQ3LTMwLjE1MyAyOS42MTMtNTIuNDI1IDU5LjEtNjQuNjMyQzMwMi43MjcgMi4yMjcgMzE1LjYyNC4wMzYgMzI5IC4wMzVjMjguNjktLjAwMSA1MS41NSA5Ljc4IDc0LjE3OCAzMS43MzcgMTYuNjM2IDE2LjE0MiAyMy44OTkgMjcuMTY4IDk2LjA4IDE0NS44NTkgNjAuNTA1IDk5LjQ5IDYxLjU0NyAxMDEuMjU3IDYyLjI3MiAxMDUuNTQ3Ljg1OSA1LjA4MS0uNDg2IDYuNzE5LTMuOTgxIDQuODQ4LTIuODc2LTEuNTQtMTAxLjgwMy0xMDQuMzYyLTE2Mi42NS0xNjkuMDU0LTQ4LjMzMy01MS4zODctNTAuOTQyLTUzLjQ4OC02Ni4zOTktNTMuNDUyLTkuOTc2LjAyMy0xNS44MTQgMi43Ni0yMy4yNTggMTAuOTA1LTYuNDQ3IDcuMDU1LTguNjc1IDEzLjI5OC04LjAxNSAyMi40NTkuNjc1IDkuMzUzIDQuMDc3IDE1LjM1MyAxNS41NTUgMjcuNDI2IDUuMzI4IDUuNjA1IDQxLjM1NCA0My4yMTkgODAuMDU4IDgzLjU4NyAzOC43MDMgNDAuMzY5IDczLjA5NyA3Ni44MTkgNzYuNDMgODEgOS41MzQgMTEuOTU5IDE3LjQyMyAyNC41MTYgMjQuMjUzIDM4LjYwMyA0MS43OTEgODYuMTk3IDE2LjY1IDE5MC4wNTUtNTkuODMgMjQ3LjE1Ni0xMi44ODMgOS42Mi0xOS40NDEgMTMuNTAyLTQ3LjA3IDI3Ljg2N0wzNjMuNSA2MTYuNTQ3IDM2MyA4NzYuMTljLS4yNzUgMTQyLjgwNC0uODIyIDI1OS45NjYtMS4yMTYgMjYwLjM2LS4zOTQuMzk0LTE1Ljc4OC0xNC41MzEtMzQuMjA5LTMzLjE2N3pNMTg3LjUgNjMzLjAwNWM5NS43MzYtNDkuMDc4IDEwMS41MzItNTIuMTY4IDEwMy45NTEtNTUuNDA3IDIuMDA2LTIuNjg2IDIuMDU1LTQuMDQ2IDIuMzQ4LTY1LjMyLjE3Ni0zNi42NzYtLjA3Ny02Mi45NTYtLjYxLTYzLjQ4OS0xLjg3OC0xLjg3OC0zNC41MTQgMjYuMzg4LTYwLjIwNyA1Mi4xNDYtMzcuMjk4IDM3LjM5Mi02Ny4wOCA3NS42NTMtOTUuMDMgMTIyLjA5LTEzLjMxIDIyLjExMS0yNi44MyA0OC41Mi0yNC4zNyA0Ny42MDQgMS4wNTUtLjM5MyAzNC4zMTgtMTcuMzI0IDczLjkxOC0zNy42MjR6Ii8+PHBhdGggZmlsbD0iI2VjYmJjNCIgZD0iTTM1NS43NDMgMTEzMS44MDhjLTMuMDEyLTIuOTItMTguMTM2LTE4LjE3OC0zMy42MS0zMy45MWwtMjguMTMzLTI4LjZ2LTIwNy42NUMyOTQgNjc3LjE5MyAyOTMuODMxIDY1NCAyOTIuNDkxIDY1NCAyOTEuMDggNjU0IDIwNy45ODQgNjk1Ljg1MyA4OSA3NTYuNDkzIDE5LjM2NCA3OTEuOTgzLjg5OSA4MDEuMjQuNTU1IDgwMC44NGMtLjY3Ny0uNzkgMS45ODMtMTQuNTgzIDYuMTQtMzEuODQgMTYuMjY4LTY3LjU0IDUxLjQzNS0xNDUuNzQ1IDk0LjY1OC0yMTAuNSA1NS4yNjItODIuNzkzIDEzMC4xMTktMTU0LjM2IDIxNi43ODUtMjA3LjI1N0MzMzUuMTUgMzQwLjg2IDM1OC45MjMgMzI4IDM2MS4xMDggMzI4YzEuODQ0IDAgMS44OTIgMi42NzkgMS44OTIgMTA2LjQ0MSAwIDcwLjk3Ny4zMzggMTA2LjY1IDEuMDE2IDEwNy4wNjkuNTU4LjM0NSA1LjMzOC0xLjY0OCAxMC42MjItNC40MyA0NS40NTItMjMuOTI4IDczLjMyNy02OS40MzYgNzMuMzU2LTExOS43NTguMDE4LTMxLjIyNS0xMC4xNC01OS45MDQtMjkuOTk1LTg0LjY4My02Ljk2Mi04LjY4OS0xNS4wODQtMTcuMzEzLTc2LjQxMy04MS4xMzktNzguMzg0LTgxLjU3Ni04MC4zMjMtODMuNjQ2LTg4Ljc2LTk0LjcyOC03LjkwOS0xMC4zOS0xNS0yMy45NTgtMTguNDM0LTM1LjI3Mi0yLjQ1LTguMDczLTIuNzM4LTEwLjU5Ni0yLjgtMjQuNS0uMDg0LTE4LjY1NyAxLjc2LTI2Ljk4OSA5LjQwOC00Mi41YTk4LjIyOCA5OC4yMjggMCAwIDEgNDIuNzIyLTQzLjY5QzI5OC43MyAyLjk5IDMxMS4zMi0uMDAzIDMyOS4xOTIuMDAzYzM1LjY3OS4wMTIgNjYuMTggMTcuNDY0IDkxLjc1NCA1Mi40OTcgMTAuNjgxIDE0LjYzMiA1MC42MyA3OS4zMDUgMTI2LjM0IDIwNC41MjggMTMuOTkgMjMuMTQgMTYuOTY4IDMwLjE3IDEzLjM2OSAzMS41NTEtMi45NSAxLjEzMiAzLjQzMiA3LjU0My05Ni4yMTItOTYuNjQ3LTI4LjYzLTI5LjkzOC02MS43NjUtNjQuNzgyLTczLjYzMi03Ny40MzJDMzQ4LjA0OCA2OC45MTUgMzQzLjgyIDY1LjU2NiAzMjkgNjUuNTI0Yy0xMC4wNTItLjAyOC0xNS4zNjQgMi4wOTMtMjIuNDIyIDguOTUyLTYuMDgzIDUuOTEyLTguNzc1IDExLjU5Ni05LjM2MSAxOS43NjEtLjU2OSA3LjkyMS44NiAxMy44MzcgNC43NjcgMTkuNzM5IDEuNTM1IDIuMzE5IDI1LjY4IDI4LjA5NiA1My42NTQgNTcuMjgyIDI3Ljk3NCAyOS4xODYgNjMuNDEyIDY2LjE1NSA3OC43NTEgODIuMTUzIDE1LjM0IDE2IDMwLjU1IDMyLjM0MyAzMy44IDM2LjMyMSAyMC4zNjggMjQuOTIzIDM0LjQ2OSA1NC42NzggNDEuMzU3IDg3LjI2OCAyLjE5MSAxMC4zNjggMi43MzIgMTYuMDM4IDMuMTcyIDMzLjI0NS4zNCAxMy4zMDMuMSAyNC4yNDQtLjY2OCAzMC41LTUuNDg1IDQ0LjY2Ny0yNS4zODQgODUuNTc1LTU3LjA0NSAxMTcuMjczLTE4LjIxOCAxOC4yNC0zMi4yNTMgMjcuNi03NC4wMDUgNDkuMzYxbC0xNy41IDkuMTIxLS41IDI1OS42NjdjLS4yNzUgMTQyLjgxNi0uNzg5IDI1OS45NTUtMS4xNDEgMjYwLjMwOC0uMzUzLjM1Mi0zLjEwNS0xLjc0OC02LjExNy00LjY2N3pNMTc1Ljc2NyA2MzkuMzI2QzI2Ny41NjkgNTkyLjIyNCAyODYuMTQzIDU4Mi40NSAyOTAgNTc5LjIxMmwzLjUtMi45MzguMjcyLTYzLjMxNWMuMTUzLTM1LjYyNC0uMTEzLTYzLjctLjYxLTY0LjE5Ni0xLjAxNy0xLjAxOC0xMC44NTIgNi41OTQtMjguNSAyMi4wNTgtNTAuMTk2IDQzLjk4My05Mi41NjEgOTQuNzg2LTEyNi45MDQgMTUyLjE3OUMxMzAuMTI1IDYzNS43NTUgMTEyIDY2OS4wNDIgMTEyIDY3MC4zMDNjMCAuMzgzLjQ1OC42OTcgMS4wMTcuNjk3czI4Ljc5Ny0xNC4yNTMgNjIuNzUtMzEuNjc0eiIvPjxwYXRoIGZpbGw9IiNlN2E4YjQiIGQ9Ik0zMjcuNjU0IDExMDIuOTJMMjk0IDEwNjguNzJWODYxLjUyOGMwLTExMy45NTctLjMtMjA3LjQ5My0uNjY1LTIwNy44NTktLjY4OC0uNjg3LTYyLjQxMyAzMC4zMTQtMjA4LjE2NyAxMDQuNTVDMzguNzg2IDc4MS44NC42NzggODAxLjAxLjQ4MyA4MDAuODE2Yy0uNzE0LS43MTMgNS41NTItMjkuNzQ2IDkuNTYzLTQ0LjMxNiAyNC44MjgtOTAuMTY3IDczLjQ0Ny0xODIuNDI0IDEzNC45MS0yNTYgNDEuNjk5LTQ5LjkxNSA5NC41MTgtOTcuMjkxIDE0OC41NDQtMTMzLjIzNyAyNy44NjYtMTguNTQgNjUuMjcyLTM5Ljk0OCA2Ny45ODQtMzguOTA4IDEuMzQyLjUxNSAxLjUxNiAxMi44MzkgMS41MTYgMTA3LjExNCAwIDg1LjQwMy4yNTIgMTA2LjUzMSAxLjI2OSAxMDYuNTMxIDIuMDQ0IDAgMTUuNjU4LTcuMTMzIDIzLjIzOS0xMi4xNzYgMzEuNDY3LTIwLjkzMiA1Mi4zODYtNTMuMDE2IDU4LjkyLTkwLjM2OSAyLjAyNi0xMS41ODYgMi4wMy0zMy4yNy4wMDgtNDQuOTU1LTIuMTIyLTEyLjI2Ni03LjUwMi0yNy45NjYtMTMuNTM5LTM5LjUwOS0xMC4yMTUtMTkuNTM0LTE0LjQ1OC0yNC4yOTYtMTA3LjM0Ni0xMjAuNDkxLTY2LjExNC02OC40NjctNzYuNjg0LTgwLjYyNS04NS4wMTUtOTcuNzg3LTYuNzgtMTMuOTctOC45ODgtMjQuMjEzLTguODgzLTQxLjIxMy4xMDMtMTYuNzEgMS45OTQtMjUuMDg5IDguOTAzLTM5LjQ0NCA1LjkwNy0xMi4yNzMgMTEuMzc3LTE5LjgyMiAyMS4wNzMtMjkuMDgyQzI4MC4yNTQgOS4xODYgMzAzLjE0My4wMTIgMzI4LjkxOS4wMDRjMjcuMjU5LS4wMSA1MS43ODcgMTAuNDIzIDczLjkxIDMxLjQzOSAxNC43MDEgMTMuOTY0IDI1LjU2NSAzMC40NDIgOTEuNjgzIDEzOS4wNTcgNjguMDQ0IDExMS43OCA2OS4yMzUgMTEzLjg2NSA2Ny4wMjggMTE3LjQzNS0xLjExMiAxLjc5OS0yLjQwNyAxLjIyOC03LjIyMy0zLjE4NS02LjMyNS01Ljc5Ni0xMjguNzUxLTEzMy42Mi0xNjYuMTg4LTE3My41MTQtMzIuMjktMzQuNDEtMzkuNTUzLTQxLjExOC00Ny45MTctNDQuMjU0LTE2LjI0LTYuMDg5LTMzLjQ1MSAxLjQyLTQxLjAyNSAxNy44OTgtNS4zIDExLjUzNC0yLjc0NCAyMy43NzggNy4zNDUgMzUuMTczIDIuNjUyIDIuOTk2IDM4Ljg5NSA0MC45OTcgODAuNTM5IDg0LjQ0N3M3Ny45NTggODEuNyA4MC42OTggODVjMTguNTAxIDIyLjI4NSAzMy4zNjQgNTIuNDk2IDQwLjI3NCA4MS44NjQgOS4xNjQgMzguOTQzIDUuNzA2IDgyLjg5NS05LjQ3NSAxMjAuNDQxLTEwLjU0NCAyNi4wNzctMjMuMTc2IDQ0Ljk1Ny00My45OTUgNjUuNzU2LTIwLjEzOCAyMC4xMTktMzEuODU0IDI4LjA5MS03MC4zMjYgNDcuODUzTDM2MyA2MTYuMzI4bC0uMDE1IDI1OS4wODZjLS4wMDggMTQyLjQ5Ny0uMzkgMjU5LjY3NS0uODQ2IDI2MC4zOTUtLjU5Mi45MzQtMTAuNDc0LTguNDktMzQuNDg1LTMyLjg5ek0yMjYgNjEzLjc2YzU5Ljc3NS0zMC43OSA2NC4yOTItMzMuMjkzIDY2LjMzNC0zNi43NSAxLjUwNy0yLjU1IDEuNjY2LTguODMgMS42NjYtNjUuOTE1IDAtNTAuMTIyLS4yNi02My4wOTYtMS4yNjItNjMuMDk2LS42OTQgMC04LjQ1NiA2LjAyMi0xNy4yNSAxMy4zODItNTYuMTM4IDQ2Ljk5LTEwMiAxMDAuOTM3LTEzOS4zOTMgMTYzLjk2OC05LjI1IDE1LjU5My0yNC4wOTUgNDMuNjY1LTI0LjA5NSA0NS41NjQgMCAxLjIzNiAyNC4xOTMtMTAuODkzIDExNC01Ny4xNTN6Ii8+PHBhdGggZmlsbD0iI2UyOTdhNCIgZD0iTTMyNy43NSAxMTAyLjcxOWwtMzMuNzUtMzQuNTVWODYwLjU4NEMyOTQgNzIwLjU2OCAyOTMuNjY5IDY1MyAyOTIuOTgzIDY1M2MtMS4wMyAwLTg2LjA0IDQyLjk0Ni0yMTcuNDU3IDEwOS44NTUtMzkuNTg2IDIwLjE1NS03Mi42MTYgMzYuODAzLTczLjQgMzYuOTk3LTEuODkzLjQ2OC0xLjE3LTQuNzIyIDMuNDAzLTI0LjQwOEMxOS41NCA3MTUuMTE4IDQ4LjM1NCA2NDYuMDA1IDg0LjUxNCA1ODUuOThjNjAuMzg5LTEwMC4yNCAxNDYuNTE1LTE4NC4zMTQgMjQ5LjM0LTI0My4zOThDMzQ2LjQ4OSAzMzUuMzI0IDM2MC4zNiAzMjggMzYxLjQ3NiAzMjhjLjI4OSAwIC41MjUgNDcuNDM4LjUyNSAxMDUuNDE4IDAgNTcuOTguMjczIDEwNi4xMy42MDcgMTA3IC44ODkgMi4zMTcgMi42MzYgMS45ODUgMTAuNjY4LTIuMDI3IDM3LjUzLTE4Ljc0NCA2My45NDMtNTMuNDM3IDcyLjg2Mi05NS43MDMgMy4wMjYtMTQuMzM3IDMuMDI2LTM3LjAzOSAwLTUxLjM3Ni0zLjg3OS0xOC4zODEtOS43Ni0zMi43MjktMTkuNTk5LTQ3LjgxMi04LjU3MS0xMy4xNC0xMS43MjUtMTYuNTc1LTg5LjUzNy05Ny41LTg2LjU3NC05MC4wMzctODcuMzYtOTAuOTM0LTk2LjQ5LTExMC4yMDktNi40NC0xMy41OTMtOC44MTItMjQuMzgyLTguNzUtMzkuNzkxLjEwMi0yNS43ODggOS42MzMtNDguNTI5IDI4LjA0My02Ni45MTVDMjc4LjI2NCAxMC42NSAyOTkuMzkgMS4zMjIgMzI1IC4zMDJjMjUuNjQyLTEuMDIyIDQ4LjIxIDcuMDE2IDcwLjc3OCAyNS4yMSAxOC4yMjMgMTQuNjkxIDI1LjMxOCAyNS4wNTMgOTEuNCAxMzMuNDg4IDU4LjA1NSA5NS4yNjIgNzMuMjAxIDEyMC42NTggNzQuMTIyIDEyNC4yODYgMi45MjcgMTEuNTI2LTEuNzM1IDcuMjUyLTcwLjkyNy02NS4wMzJDNDA1LjU1NiAxMjkuNjQ4IDQxMC43ODQgMTM1LjEzNyAzODYuMzEgMTA5Yy0yOS43MTItMzEuNzMtMzUuNzExLTM3LjM1Ni00My45NDItNDEuMjE1LTEzLjM5LTYuMjc4LTI2LjU4My0zLjY3Ni0zNi44MTIgNy4yNi02LjczMSA3LjE5Ni05LjAxNCAxMi43Ni05LjAxIDIxLjk1NS4wMDUgMTAuOTQxIDIuOTQ0IDE2LjMyNyAxNi44MzIgMzAuODU1IDYuMTIyIDYuNDA1IDQxLjczIDQzLjU1NyA3OS4xMjcgODIuNTYgMzcuMzk4IDM5LjAwMyA3MC44NTIgNzQuMzI4IDc0LjM0MyA3OC41IDMxLjAyMyAzNy4wNzYgNDcuNzE2IDg2LjEgNDUuODI1IDEzNC41ODUtMi4wOTQgNTMuNjk0LTIzLjg1NyAxMDIuMTc3LTYyLjAyMSAxMzguMTY1LTE2LjcxNSAxNS43NjEtMzEuODcyIDI1LjY0NS02Ny4xNTEgNDMuNzg2LTEwLjQ1IDUuMzczLTE5LjQ1IDEwLjE5My0yMCAxMC43MS0uNjYuNjE5LTEuMTcgODkuNTc3LTEuNSAyNjEuMDI0bC0uNSAyNjAuMDg0ek0xNzYuNzgyIDYzOS4zMTRjOTcuODk2LTUwLjIyIDExMC40NjctNTYuODQ0IDExMy45NjgtNjAuMDUzbDMuMjUtMi45NzhWNTEyLjE0YzAtNTUuNDQzLS4xOTctNjQuMTQxLTEuNDU0LTY0LjE0MS0xLjk4OCAwLTIzLjY5OCAxOC4wOTYtNDIuOTEgMzUuNzY3LTUyLjc3MiA0OC41NC0xMDEuNDY3IDExMy4zOTYtMTM0Ljc0NCAxNzkuNDYtNC4yNjQgOC40NjgtNC4zNjQgOC43NzMtMi44NiA4Ljc3My41NjcgMCAyOS43MDUtMTQuNzA5IDY0Ljc1LTMyLjY4NnoiLz48cGF0aCBmaWxsPSIjZTA4ZTlkIiBkPSJNMzI4LjI1IDExMDIuOTg1TDI5NSAxMDY5LjE5MVY4NjEuNTY0YzAtMTgxLjg3Ny0uMTgzLTIwNy42OTctMS40NzItMjA4LjE5Mi0xLjQ4Ni0uNTctNTQuMDA0IDI1LjcyOC0yMDguMzcgMTA0LjMzNkMzOS4zMTkgNzgxLjA1IDEuNTcgNzk5LjkwNCAxLjI3IDc5OS42MDVjLTEuMzA3LTEuMzA3IDcuNDQ3LTM4LjI3NCAxNC4yMzMtNjAuMTA1IDI3LjQ1LTg4LjMwNSA3NS4yMDMtMTc0Ljk0NCAxMzUuMDM4LTI0NSAxNS45OTktMTguNzMxIDU2LjQtNTkuMTkgNzQuOTU4LTc1LjA2NSAyNy43OTktMjMuNzggNTYuMDU4LTQ0LjU2NCA4NS41LTYyLjg4NyAyMC42MTktMTIuODMyIDQ5LjAwOC0yOC42NiA1MC4xNDUtMjcuOTU5LjQ3LjI5MS44NTUgNDguMTc2Ljg1NSAxMDYuNDExIDAgNzEuMTkuMzM2IDEwNi4wOSAxLjAyNCAxMDYuNTE1IDEuODg4IDEuMTY2IDYuNjgzLS41ODYgMTUuNjEzLTUuNzA0IDM1LjQ0LTIwLjMxMyA1OS4wMzUtNTIuNDIgNjcuNDcyLTkxLjgxMSAxLjgxNy04LjQ4MiAyLjI0OS0xMy42NyAyLjI0OS0yNyAwLTI0LjY4NC0zLjc3NC00MC4yNzgtMTUuMDI1LTYyLjA3OC05Ljg3Mi0xOS4xMjktMTEuMzA0LTIwLjc1OC05MS4zMTctMTAzLjkyMi04MS4xODYtODQuMzgzLTg3LjA2NC05MC44MzQtOTYuMTItMTA1LjQ5MS0xMC40MjctMTYuODc4LTE0LjQ0NS0zMi41LTEzLjYxMi01Mi45MjguNjI0LTE1LjMxOCAyLjMzOC0yMi42NzcgOC4yLTM1LjIwNCA4LjMxNS0xNy43NyAxOS40NTItMzAuODE3IDM0LjktNDAuODg3IDQwLjY1Mi0yNi40OTggODkuNTQ3LTIwLjYxNSAxMjYuNzUzIDE1LjI1MSAxMC4xNTYgOS43OSAxOS41NjggMjEuOSAzMC44NjYgMzkuNzEyQzQ1Ni4yMzYgMTA4LjA4MiA1NTcuMjg1IDI3NC4yNCA1NjAuMTM1IDI4MC41YzQuNDMgOS43My40NjggMTAuMDYtOS4wNDYuNzUtNS45NC01LjgxMi00OS4xOTYtNTAuOTI0LTEyMC41NzgtMTI1Ljc1LTEwLjQ5NC0xMS0yOC41NzctMzAuMTI1LTQwLjE4NC00Mi41LTQyLjA0NS00NC44MjUtNDYuNTQtNDguMzc2LTYxLjMyNy00OC40NTgtOS4wNjgtLjA1LTE2LjUzOCAyLjk5NS0yMi44NjQgOS4zMjItMTIuNDE4IDEyLjQxOC0xMy4yOTEgMzAuMDYzLTIuMTcyIDQzLjg4OCAyLjEgMi42MTEgMjIuMTc4IDIzLjg3MyA0NC42MTcgNDcuMjQ4IDIyLjQ0IDIzLjM3NSA1Ny4yMTggNTkuNiA3Ny4yODYgODAuNXMzOS4xODIgNDEuMzc1IDQyLjQ3NiA0NS41YzIyLjQ1NSAyOC4xMjEgMzYuODQ4IDYwLjg3IDQyLjM0NCA5Ni4zNDYgMi42MDMgMTYuODAyIDIuMzIgNDUuMjM0LS42MiA2Mi4xNTQtMTAuMDQgNTcuODAxLTQyLjggMTA2LjQyNS05Mi40MTYgMTM3LjE3Mi01LjAzMyAzLjEyLTE4LjM3NiAxMC4zOTItMjkuNjUxIDE2LjE2My0xMS4yNzUgNS43Ny0yMS43MzcgMTEuMzQ4LTIzLjI0OCAxMi4zOTVsLTIuNzQ4IDEuOTAzLS4yNTIgMjU5LjgyNC0uMjUyIDI1OS44MjJ6TTE4NC4zNjggNjM1LjY1N2M4OS40MTUtNDUuODQ3IDEwMy42MTctNTMuMzM4IDEwNi41NzYtNTYuMjE0IDEuNzcyLTEuNzIzIDIuNjQxLTMuOTY0IDMuMTY1LTguMTYuODc1LTcuMDA0IDEuMTEzLTExOC44NTEuMjYtMTIyLjAzMy0uMzMtMS4yMzgtLjk4Mi0yLjI1LTEuNDQ3LTIuMjUtLjQ2NCAwLTYuMTUgNC4zNDMtMTIuNjMzIDkuNjUxQzIyMC41MzggNTA1LjU3IDE2OS45OCA1NjUuMjkgMTMxLjU5IDYzMi4zIDEyMi42NSA2NDcuOTA5IDExMSA2NzAuMTQyIDExMSA2NzEuNmMwIDEuNSA3LjctMi4yNzEgNzMuMzY4LTM1Ljk0M3oiLz48cGF0aCBmaWxsPSIjZGQ4NTk1IiBkPSJNMzI4LjUgMTEwMy4yMmwtMzMtMzMuMjgyLS41LTIwOC4yMDVjLS40NS0xODcuMjY1LS42NTYtMjA4LjIzNi0yLjA1NS0yMDguNTA1LTEuNTA4LS4yOS02MS40OTQgMjkuODQtMjE0LjQ0NSAxMDcuNzE1LTQwLjcgMjAuNzIyLTc0Ljc4NyAzNy45NzMtNzUuNzUgMzguMzM1LTIuMjYuODUxLTIuMjM2LS4wOTguMjktMTEuNTM5QzIyLjE5NSA3MDAuOTc1IDYyLjg4NyA2MTEuOTQ1IDExOC4zMjggNTM1LjVjNDUuNDktNjIuNzIyIDEwNy43MzItMTIyLjM5IDE3My43Mi0xNjYuNTMgMjQuMjc3LTE2LjI0IDY0Ljk0LTM5Ljk3IDY4LjQ5LTM5Ljk3IDEuMjc0IDAgMS40NjIgMTMuNjk3IDEuNDYyIDEwNi4zOTMgMCA5MC43NDUuMjA4IDEwNi40NzMgMS40MTMgMTA2LjkzNSAxLjgwNS42OTMgMTMuNi00Ljk0OSAyMi44OTMtMTAuOTQ5IDQwLjc0OC0yNi4zMSA2NC41NDMtNzIuMDU2IDYyLjM1NC0xMTkuODc5LTEuMjM5LTI3LjA1Ni05LjQ4OC01MS4wODctMjQuOTQ3LTcyLjY3Ni03LjI2Ni0xMC4xNDUtMTcuNzEzLTIxLjUwNC02NC42My03MC4yNy0xOS4wMi0xOS43NjktNDEuMTA4LTQyLjczNC00OS4wODMtNTEuMDMzLTQ5Ljc0NC01MS43NjQtNjEuMTI3LTY1LjAzOS02OC4xOTQtNzkuNTIxLTcuODM1LTE2LjA1OS0xMC4zNDUtMjguMzUtOS40OTQtNDYuNSAxLjExLTIzLjY4IDkuNzYzLTQzLjQ5MyAyNi41NzktNjAuODU3IDkuNTI3LTkuODM3IDE3LjMxNi0xNS40NTEgMjkuMjU3LTIxLjA4N0MzMDMuMzA1IDIuNDAyIDMxMS44MS41NjQgMzI5LjUuNjJjMTMuMzI4LjA0MiAxNi4wMDMuMzQ4IDI0IDIuNzQ3IDE4LjQ5IDUuNTQ5IDMzLjk4OCAxNC41NDEgNDguMTMgMjcuOTI3IDE0Ljk5NyAxNC4xOTcgMjMuMDAxIDI2LjAzIDczLjg3IDEwOS4yMDYgNDIuNDc3IDY5LjQ1MyA4My43OTIgMTM3Ljk1NCA4NS4xMTggMTQxLjEyOCAzLjA3NCA3LjM1OC4yOCA4LjUyMi02LjI4NiAyLjYyLTQuOTYyLTQuNDYyLTExMi4yLTExNi40Ny0xNTMuODE3LTE2MC42Ni01My4zNzQtNTYuNjc2LTU2LjM0OC01OS4xMTQtNzIuMDE1LTU5LjA1Ny05LjY2NS4wMzUtMTUuNjE1IDIuNTI1LTIyLjU0MyA5LjQzNy03LjExMyA3LjA5Ny05LjQ2MiAxMi44My05LjQzMyAyMy4wMzIuMDIgNy4zMzIuNDA3IDkuMjM0IDIuODE1IDEzLjg0NSAzLjQ2MiA2LjYzLjI4IDMuMjA2IDg3LjUxNCA5NC4xNTUgMzkuODI5IDQxLjUyNSA3NS40NTkgNzkuMSA3OS4xNzcgODMuNSAzMi42NjYgMzguNjUyIDUwLjEzMyA5Mi41NTkgNDYuMDQ0IDE0Mi4xMDQtNC45NSA1OS45OTMtMzIuNDMzIDExMC4zMjctNzkuNjggMTQ1LjkzNS0xMC40NTcgNy44ODItMjIuMzAzIDE0Ljg0NC00Ni41NTQgMjcuMzYtMTEuOTEyIDYuMTQ4LTIyLjE1IDExLjc2OC0yMi43NDggMTIuNDktLjc3Ny45MzYtMS4xNiA3NS41MzUtMS4zNCAyNjAuNzExbC0uMjUyIDI1OS40ek0xNzAuNjggNjQyLjgzNmM5OS4zNjgtNTAuOTU2IDExNS42NzYtNTkuNTQ4IDExOS44Mi02My4xMjRsNC0zLjQ1Mi4zMDYtNjIuMzM4Yy4xNjktMzQuMjg2LjA0OC02My4zNy0uMjY5LTY0LjYzLS4zMTYtMS4yNjEtMS4wNi0yLjI5My0xLjY1My0yLjI5My0xLjQ0MyAwLTE5LjM1IDE0Ljc1NS0zNS4zODQgMjkuMTU4LTU2LjAwNCA1MC4zMDUtMTAxLjAxIDEwOC4yMzctMTM3Ljg5NiAxNzcuNDk4QzExMi4wNjEgNjY3LjgyIDEwOS44NzIgNjczIDExMS40MyA2NzNjLjIzNyAwIDI2LjktMTMuNTczIDU5LjI1LTMwLjE2M3oiLz48cGF0aCBmaWxsPSIjZDk3NTg3IiBkPSJNMzI4LjI1IDExMDIuNzE4bC0zMy4yNS0zNC4wOVY4NjAuODc0YzAtMTM4LjE4LS4zMzctMjA3Ljk2My0xLjAwNS0yMDguMzc2LS45MDctLjU2LTg0Ljk4NiA0MS43MDktMjM3LjQ5NSAxMTkuMzk2LTMwLjI1IDE1LjQxLTU1LjE0NSAyNy42MDMtNTUuMzIyIDI3LjA5Ny0uNTEzLTEuNDY5IDYuNDgtMzEuMDQgMTEuNDU1LTQ4LjQzNUMzNy43NjkgNjYyLjY2NiA4NS45NTggNTcyLjIxNSAxNDUuNTg5IDUwMWM1MC4wNjYtNTkuNzkzIDExMC44NDctMTExLjYyNiAxNzcuOTExLTE1MS43MjFDMzQwLjQ0MSAzMzkuMTUgMzU5LjEzOSAzMjkgMzYwLjg1NSAzMjljLjg1MyAwIDEuMTQ1IDI3LjE5IDEuMTQ1IDEwNi41MzEgMCA5MS41NC4yMDIgMTA2LjYxIDEuNDMyIDEwNy4wODEuNzg4LjMwMyA1LjA2MS0xLjI4IDkuNDk2LTMuNTE1IDM4LjQ2Ni0xOS4zOTYgNjQuMzMtNTIuODMgNzMuNTY3LTk1LjA5NyAyLjQ2NS0xMS4yNzkgMy4wNDgtMzUuMzczIDEuMTM5LTQ3LjAxMi00LjE5LTI1LjU0MS0xNC45NC00OC45ODctMzEuMTc0LTY3Ljk4OC02LjUyLTcuNjMxLTMwLjI5OC0zMi42OTgtNzQuNDY3LTc4LjUtODYuODgzLTkwLjA5Ny05Mi4wNS05NS45NjYtMTAxLjAyNC0xMTQuNzQtNS4yNjQtMTEuMDExLTguMDEyLTIyLjAyNy04LjY3MS0zNC43Ni0uNjY2LTEyLjg2Ni43MTItMjIuMzc1IDUuMTEtMzUuMjYyIDQuNjU0LTEzLjYzNCAxMS4zNC0yNC4zMjIgMjIuMDkyLTM1LjMxNyAxMy4yMzMtMTMuNTMgMjYuMjE3LTIxLjMwNiA0NS4yMTYtMjcuMDc5QzMxMi40MzMuOTk3IDMxNS4yNi42NjUgMzI4IC42MDljMTIuNzIyLS4wNTYgMTUuNjY1LjI2IDI0IDIuNTc0IDE4LjQ1MiA1LjEyNCAzNS4wMyAxNC40OTYgNDkuNDM3IDI3Ljk1MUM0MTUuNTQ2IDQ0LjMxMSA0MjQuOTg0IDU4LjI4MiA0NzQuOTggMTQwYzM1LjI2OCA1Ny42NDYgODQuNDkzIDEzOS4yOCA4NS44MDQgMTQyLjI5NyAyLjkwNyA2LjY4Ny4yNzUgNy41NTMtNS45NCAxLjk1My01LjYwMy01LjA0OC0xMjYuODc0LTEzMS42OTItMTY0LjU0LTE3MS44My0zMy4yLTM1LjM3OS0zOS4yNzctNDEuMTkyLTQ3LjEzMS00NS4wODgtMTEuNzk2LTUuODUtMjYuMDE0LTMuNzc2LTM2LjA2NyA1LjI2My0xMy44NzcgMTIuNDc2LTE0Ljk2IDMxLjgyNC0yLjU5MSA0Ni4zMTQgMi40ODEgMi45MDcgMzguODg4IDQxLjEzIDgwLjkwMiA4NC45MzggNDIuMDE1IDQzLjgxIDc4Ljk4MiA4Mi44MDMgODIuMTQ4IDg2LjY1MyAyMi41MTMgMjcuMzY5IDM3LjkzOSA2Mi45MzYgNDIuOTg1IDk5LjEwNiAyLjAyIDE0LjQ3NiAxLjU0NCA0OC4yMDQtLjg2IDYwLjg5NC05LjQ2MyA0OS45NzgtMzMuNTE3IDkwLjY2LTcxLjgzIDEyMS40ODYtMTIuNzc2IDEwLjI4LTIzLjczNyAxNi45NS01MS4zNiAzMS4yNTQtMTIuNjUgNi41NS0yMy4zMzYgMTIuMjM1LTIzLjc0NiAxMi42MzEtLjQxLjM5Ny0uNzUyIDExNy44MTMtLjc1OCAyNjAuOTI1LS4wMDYgMTQzLjExMi0uMTIgMjYwLjE2LS4yNTMgMjYwLjEwOC0uMTM0LS4wNTMtMTUuMjA1LTE1LjQzNy0zMy40OTMtMzQuMTg2ek0xNzguOTA2IDYzOC44NWM3MS4yMy0zNi41MjggMTA0LjU1LTUzLjgzNSAxMDkuOTU5LTU3LjExNCA2LjI2LTMuNzk1IDYuMTM1LTIuMzQ4IDYuMTM1LTcxLjIzNCAwLTU0LjkzMS0uMTg1LTYyLjYzNS0xLjUxMy02My4xNDQtMi43MzEtMS4wNDgtMzUuMjkzIDI2LjczMy01OS4xOCA1MC40OS00Ni45MSA0Ni42NTgtODUuMTQ4IDk4Ljc4Ny0xMTYuNDM1IDE1OC43MzYtNi44OTggMTMuMjE4LTguMDc3IDE2LjQxNy02LjA1IDE2LjQxNy4yNyAwIDMwLjQ1Ny0xNS4zNjggNjcuMDg0LTM0LjE1eiIvPjxwYXRoIGZpbGw9IiNkNTY2N2EiIGQ9Ik0zMjcuMTYgMTEwMS4xMDNMMjk1IDEwNjguMTQ3Vjg2MC4wNzNDMjk1IDY4My45OTYgMjk0Ljc4OCA2NTIgMjkzLjYyMiA2NTJjLTEuMzE1IDAtNTguNjM1IDI4Ljg1NS0xOTQuMTIyIDk3LjcyLTM0LjEgMTcuMzMyLTcwLjI3NiAzNS43OTUtODAuMzkyIDQxLjAyOS0xNi42NTQgOC42MTYtMTguMzQ0IDkuMjktMTcuODg1IDcuMTMzQzE3Ljk2OCA3MTkuMTY1IDQ3LjY0MiA2NDYuMjY4IDkxLjY3IDU3NS42OWM1MC4zMTktODAuNjYzIDEyMC4zMzctMTUyLjU4MyAyMDEuNTAxLTIwNi45NzYgMjQuOTM4LTE2LjcxMyA2NS45MjEtNDAuMzk0IDY3Ljg0Ni0zOS4yMDQuNjM0LjM5MS45ODMgMzguMjQ2Ljk4MyAxMDYuNTggMCA5OC4xODcuMTIzIDEwNi4wMTkgMS42NzUgMTA2LjYxNCAyLjA0Ljc4MyAxNC42NTMtNS41MzcgMjUuNzkxLTEyLjkyMyAxMC4yNzktNi44MTYgMjQuOTU4LTIwLjg3IDMzLjEzOC0zMS43MjUgMTEuNzY0LTE1LjYxMyAyMS4zNzMtMzguMDk2IDI0Ljc4LTU3Ljk4MyAyLjEwNS0xMi4yOCAyLjEwNS0zMy44NjcgMC00Ni4xNDgtMy40NDctMjAuMTIxLTEyLjM1LTQwLjc0My0yNC42NzYtNTcuMTYzLTguMTU0LTEwLjg2My0xNy42OTctMjEuMDg5LTg0LjcwMi05MC43NjMtNTguNDUxLTYwLjc3OS02Ny4wMy02OS44MjQtNzYuNjQ0LTgwLjgxNy0xNC41MDQtMTYuNTgtMjIuNzctMzEuNTM0LTI3LjA1NS00OC45NDYtMi41MjctMTAuMjY3LTIuMjc3LTMwLjMwNS41Mi00MS42MTQgNi44MzctMjcuNjQyIDI1LjYwMy01MC44MyA1MS42NzMtNjMuODQ3IDYuMzMtMy4xNiA5Ljc5Ny00LjQyIDI0LjUtOC45MDQgMi45MTQtLjg4OCA5LjI1OC0xLjM1MiAxOC0xLjMxNiAxNi40NTQuMDY5IDI2LjUyNiAyLjYwMiA0My41IDEwLjk0MSAxOC41OTUgOS4xMzUgMzIuNzczIDIxLjUxMyA0Ni45OSA0MS4wMjJDNDMwLjA2MyA2Ny4wMjUgNDUzLjU2MiAxMDQuOTMgNTI1LjgwNyAyMjQgNTU0LjY5OCAyNzEuNjIgNTYyIDI4NC4zMTMgNTYyIDI4Ni45MTZjMCAyLjg0My01LjAyNy0uNzIyLTE0LjUyNC0xMC4yOTktMTYuODc0LTE3LjAxNy0xMjEuNDQ1LTEyNi40MTktMTUzLjA3OC0xNjAuMTUtMzMuNjEtMzUuODQtNDMuNDc3LTQ1LjQzLTUwLjU2MS00OS4xNDEtNC43NDUtMi40ODYtNi4zOS0yLjc5OC0xNC44MzctMi44MTEtMTEuNTMtLjAxOC0xNi4zOTUgMi4wMzgtMjQuMDk5IDEwLjE4My02LjgxMiA3LjIwMy05LjI4IDEyLjk4Mi05LjMxMSAyMS44MDItLjAzOCAxMC43NDEgMy42NjIgMTcuNjk0IDE2LjYwNSAzMS4yMDMgNS42ODkgNS45MzggNDAuNzYgNDIuNTIyIDc3LjkzNSA4MS4yOTdzNzAuMjQyIDczLjU2OSA3My40ODEgNzcuMzJjMjMuNTA3IDI3LjIxOSAzOS4zMjEgNjAuNDQ4IDQ1LjUzNSA5NS42OCAyLjYwOCAxNC43ODYgMy40OTggNDAuMTMgMS45MzUgNTUuMTAyLTQuOTg0IDQ3Ljc0Ny0yNy41MTQgOTMuMTkyLTYxLjkzMiAxMjQuOTIzLTE3LjIyOSAxNS44ODMtMjguOTIgMjMuNDktNjQuNTA4IDQxLjk3NUwzNjIuNSA2MTUuNWwtLjUgMjU4LjkxN2MtLjM1OCAxODUuNDM4LS44MSAyNTkuMDItMS41OSAyNTkuMjgtLjU5OC4yLTE1LjU2LTE0LjQ2OC0zMy4yNS0zMi41OTR6TTEyNy4yNTYgNjY1LjYxMWM3LjgzNS00LjA2NCA0MS4yNDUtMjEuMjM2IDc0LjI0NS0zOC4xNiA3Ny4yMTItMzkuNTk4IDg3LjQ3NS00NS4wNDQgOTAuNS00OC4wM2wyLjUtMi40NjZ2LTY0LjcxNGMwLTU5LjQ3OC0uMTM0LTY0Ljc0LTEuNjU5LTY1LjAzMy0uOTYyLS4xODUtNy44ODkgNC44OC0xNi41IDEyLjA2Ni01Ni4zOTYgNDcuMDYzLTEwMS40NyA5OS42NS0xMzkuMDcgMTYyLjI1LTkuOTU3IDE2LjU4LTI3LjI3MSA0OC41My0yNy4yNzEgNTAuMzI3IDAgMi4yMTggMy4xMzQgMS4wODUgMTcuMjU1LTYuMjR6Ii8+PHBhdGggZmlsbD0iI2QyNWI3MCIgZD0iTTMyNy43NSAxMTAxLjIzNUwyOTUgMTA2OC40M1Y4NjAuMjE1QzI5NSA2NjcuODAzIDI5NC44NzUgNjUyIDI5My4zNTggNjUyYy0uOTAzIDAtMjQuODY1IDExLjc2Mi01My4yNSAyNi4xMzdDMTQ0LjAwMSA3MjYuODEgNy41MTggNzk2LjIyNSA0LjEyNiA3OTguMTU3TC43NTIgODAwLjA4bC41NDMtMi4yOWMuMjk4LTEuMjU5IDEuOTAxLTguMTQyIDMuNTYyLTE1LjI5NkMyNS41OTQgNjkzLjE3IDY3LjgyNyA2MDMuNzQ2IDEyNS40NCA1MjcuMTdjNTguNDE0LTc3LjY0MSAxMzkuNzU4LTE0Ny4zMzkgMjI0LjgxLTE5Mi42MjNsMTAuNzUtNS43MjRWNDM0LjMzYzAgNTguMDI4LjI3MyAxMDYuMjE4LjYwNyAxMDcuMDg4Ljk2OSAyLjUyNCA0LjMzMSAxLjg2NyAxMi44MjYtMi41MDcgMzguNjA2LTE5Ljg3OSA2NC45NzUtNTUuMTg1IDczLjEyNS05Ny45MTEgMi42My0xMy43ODcgMi40NDMtMzYuMTk3LS40MTMtNDkuNjg4LTQuMjY5LTIwLjE1Ny0xMi43NzctMzkuNDg1LTI0LjAzOS01NC42MDQtNy4yNS05LjczNC0xOC41MjMtMjEuODMtNzcuNTQ1LTgzLjIwOC04MS4zNTktODQuNjA1LTg3Ljc1LTkxLjUxNy05Ni4zNzUtMTA0LjIzMy0yNS42NC0zNy43OTgtMjEuMzIxLTg1Ljg3IDEwLjY1Ni0xMTguNjA3QzI3Mi40MjggMTcuNzc0IDI4OS40ODQgNy42ODYgMzA1IDMuOTQ5YzMuMDI1LS43MjkgNi4wMzItMS43MiA2LjY4Mi0yLjIwM0MzMTMuNTE2LjM4NCAzMzMuODU2LS4zMDUgMzQwIC43ODdjMjMuMjQ1IDQuMTMzIDQ0LjQyNCAxNC45MzUgNjEuNTg0IDMxLjQxIDE2Ljk3MiAxNi4yOTIgMjMuMzE4IDI2LjA5MiAxMTkuNTc2IDE4NC42MjMgMjAuODEyIDM0LjI3NiAzNy44NCA2Mi41NTggMzcuODQgNjIuODQ5cy43MzQgMi4wNzUgMS42MyAzLjk2NmM0LjE4MyA4LjgxMy0zLjEzNyAzLjM5MS0yMS44NC0xNi4xOC04Ljk2LTkuMzc0LTQwLjM4OC00Mi4yMjQtNjkuODQtNzMtMjkuNDU0LTMwLjc3NS02My43MjItNjYuNzU1LTc2LjE1Mi03OS45NTUtMjYuNjA5LTI4LjI1OC00MS45MjEtNDMuMzktNDYuODgtNDYuMzMxLTUuNDM5LTMuMjI1LTE1LjM5Ni01LjQ3LTIwLjgwNS00LjY5LTExLjI0OCAxLjYyMy0yMS45NzcgOS43MTgtMjYuOTM2IDIwLjMyNS0zLjczIDcuOTc4LTMuNzY0IDE4LjM0Ni0uMDgzIDI2LjIxIDMuMTgyIDYuODAyIDIuMzMzIDUuODgyIDg0Ljg4NSA5MS45ODYgNzcuNCA4MC43MyA4MS4xMiA4NC42OCA4Ny4yMzcgOTIuNjM2IDI4LjQ2IDM3LjAxNSA0My4zNiA4My41MzMgNDEuNDM2IDEyOS4zNjQtMi44MDIgNjYuNjk5LTM1LjQxOSAxMjMuNzM0LTkxLjY1MiAxNjAuMjY4LTQuNjc1IDMuMDM3LTE5LjA3IDEwLjk5Ny0zMS45ODggMTcuNjg4LTEyLjkxOSA2LjY5LTI0LjI4IDEyLjg4Mi0yNS4yNDggMTMuNzU4LTEuNjcgMS41MTEtMS43NzMgMTQuODA1LTIuMDEyIDI1OS45NmwtLjI1MiAyNTguMzY3ek0xNzkgNjM5LjMxYzEwMC40NjYtNTEuNTAzIDEwOS4xNi01Ni4xMiAxMTIuNzU3LTU5Ljg4NmwzLjI1OC0zLjQxLS4yNTgtNjQuNjczYy0uMTg4LTQ3LjMyNS0uNTYzLTY0Ljc3NS0xLjM5Ny02NS4wNTMtLjYyNy0uMjEtNi42ODggNC4xNjUtMTMuNDY4IDkuNzItNjcuMTA2IDU0Ljk4Ni0xMjEuNTM5IDEyMi4wMzctMTYyLjAxOCAxOTkuNTc2LTguMDYyIDE1LjQ0My05LjMzNyAxOS4xODYtNi4xMjQgMTcuOTY4Ljk2My0uMzY1IDMxLjIyNS0xNS43NzQgNjcuMjUtMzQuMjQyeiIvPjxwYXRoIGZpbGw9IiNkMDU1NmIiIGQ9Ik0zMjguMjUgMTEwMS43MzVMMjk2IDEwNjkuNDN2LTIwNy4yOGMwLTE0NC40MDMtLjMyMi0yMDcuODgzLTEuMDYyLTIwOS4yNjYtLjk5OC0xLjg2NC01LjA1OS4wMzQtNjYuNzUgMzEuMjAyLTM2LjEyOSAxOC4yNTItMTAxLjMzOCA1MS4zNS0xNDQuOTEgNzMuNTVDMzkuNzA0IDc3OS44MzcgMy42MyA3OTggMy4xMSA3OThzLTEuMTcuNTYzLTEuNDQ4IDEuMjVjLS4yOTkuNzQyLS41MzYuNTMzLS41ODMtLjUxNC0uMDQzLS45Ny4zNDYtMi41NDUuODY2LTMuNS41Mi0uOTU1IDIuMTQ1LTcuMzYxIDMuNjEyLTE0LjIzNiA4LjkyMS00MS44MiAyNy4zNjMtOTMuMTcgNTAuMjgtMTQwIDYzLjA2Mi0xMjguODcyIDE2MS4yNDMtMjMyLjAwMyAyODguMzAyLTMwMi44MzkgOC4wNTEtNC40ODggMTUuMTM5LTguMTYxIDE1Ljc1LTguMTYxLjgwOCAwIDEuMTExIDI4LjkxNyAxLjExMSAxMDUuOTY1IDAgMTIyLjQ0NS0xLjI2NCAxMTAuMzQ1IDEwLjkxNyAxMDQuNTA4IDM5LjI4LTE4LjgyNSA2Ni45NjItNTUuMDQzIDc1Ljc0LTk5LjA5OSAyLjYzLTEzLjE5NSAyLjM5LTM3LjU3Ny0uNTAxLTUxLjEwOC00LjkzNi0yMy4wOTQtMTYuMDItNDUuNDE2LTMxLjE2OC02Mi43NjYtNi44ODItNy44ODItMjkuODk1LTMyLjA4Ny03Ni41MzQtODAuNS04Mi41NC04NS42NzgtODkuMTM2LTkzLjE1LTk3LjQzNy0xMTAuMzg4LTUuODgyLTEyLjIxNS04LjEwNy0yMS4yMTgtOC43NC0zNS4zNzMtLjgzNC0xOC42NjcgMS44OS0zMS43MTIgOS45NjgtNDcuNzQgNi4zNzYtMTIuNjQ4IDE5LjEtMjcuMTM3IDMxLjA2My0zNS4zNjcgNy4wOS00Ljg3OCAyMS43NzEtMTEuNjc0IDI5LjMyOC0xMy41NzUgMy43NzUtLjk1IDcuNTk1LTIuMTA4IDguNDktMi41NzNDMzE0Ljg4LjU1MSAzMzIuMTY2LS4xOTQgMzM4LjUuODQ3YzIzLjY0NyAzLjg4NyA0NS4xMzIgMTQuNDk2IDYyLjU2MiAzMC44OTMgMTUuMzMgMTQuNDIyIDI1Ljk5OCAzMC42MjcgOTYuOTM3IDE0Ny4yNkM1NTcuNTEgMjc2Ljg0MSA1NjIgMjg0LjQzIDU2MiAyODcuMTU2YzAgMS4xNDktMy4xMzItLjE5Mi02LjAxOC0yLjU3Ni0zLjgyLTMuMTU1LTExNy41Ny0xMjEuODE4LTE2MC42NDMtMTY3LjU4LTQ2LjUwMS00OS40MDQtNTEuNTU4LTUzLjQ4LTY2LjM2LTUzLjQ5My02LjQ5LS4wMDYtOC40MzcuNDQ0LTE0LjE5NyAzLjI4LTcuMzg3IDMuNjM2LTEzLjMwMiA5LjU3NS0xNi45ODUgMTcuMDUtMS44NTUgMy43NjYtMi4yOTQgNi4yOTgtMi4yODMgMTMuMTYzLjAxMiA3LjM0My4zOTMgOS4yMjMgMi43OTcgMTMuODEgMy41NTMgNi43NzkgMS44ODIgNC45NzQgODEuNjY1IDg4LjE5IDgyLjQ3IDg2LjAxOCA4NC4zODggODguMDYyIDkxLjQxNSA5Ny4zOTkgNTUuMzIzIDczLjUwNyA1My40OTkgMTc1LjM0MS00LjQxIDI0Ni4xMDEtNy4wNzUgOC42NDYtMjEuMzIgMjIuNjg1LTI5Ljk4MSAyOS41NDktMTMuMTggMTAuNDQ1LTI5LjI3IDE5Ljk4Ni01OS41IDM1LjI4My03LjE1IDMuNjE4LTEzLjY3NSA3LjAzMi0xNC41IDcuNTg3LTEuMzI1Ljg5LTEuNTU4IDMxLjI4LTIgMjYwLjA2NWwtLjUgMjU5LjA1N3pNMTc4LjA1OCA2MzkuOTM4Yzk1LjY4My00OS4wNTMgMTEwLjk2My01Ny4xMTIgMTEzLjk2LTYwLjExIDMuNzgyLTMuNzgyIDMuOTY3LTcuMTg3IDMuOTc1LTczLjM4Ny4wMDYtNDYuMDYyLS4yNS01Ny40MTEtMS4zMy01OC44ODctLjczNi0xLjAwNi0xLjgzNi0xLjY1NS0yLjQ0NS0xLjQ0Mi0zLjQ4OCAxLjIyMi0zNi42NSAzMC4zMjktNTQuNTU3IDQ3Ljg4OC0yOS42ODcgMjkuMTEtNTAuNDM2IDUzLjI0Ny03My4wNjcgODUtMTguMjA1IDI1LjU0Mi0zNi4xNzMgNTUuMTY0LTQ4Ljk3MSA4MC43MzMtNS4zODggMTAuNzY0LTYuNTcgMTQuMjY3LTQuODE1IDE0LjI2Ny40NDQgMCAzMC43MDYtMTUuMzI4IDY3LjI1LTM0LjA2MnoiLz48cGF0aCBmaWxsPSIjY2U0YjYyIiBkPSJNMzI3LjU4NiAxMTAwLjgwNEwyOTYgMTA2OC42MDhWODYxLjM4NmMwLTExMy45NzItLjI3My0yMDcuOTM0LS42MDctMjA4LjgwNC0uMzM0LS44Ny0xLjAyNS0xLjU4Mi0xLjUzNS0xLjU4Mi0uODk0IDAtNjcuNTU3IDMzLjY3My0yMTkuMzU4IDExMC44MDQtMzkuNiAyMC4xMi03Mi4zMyAzNy4wNTgtNzIuNzM1IDM3LjY0LS40NC42MzMtLjc0LjM4LS43NS0uNjM1LS4wMDgtLjkzLjM4My0xLjkzNy44Ny0yLjIzOC40ODYtLjMgMS4yMDItMi42OSAxLjU5LTUuMzA5QzYuMTQ3IDc3My4yNCAyMC44MjEgNzI0LjI5IDMyLjQ4MyA2OTQuNSA2Ny41OSA2MDQuODI0IDExOS4zNjYgNTI1LjA1NiAxODYgNDU3Ljk4N2M0Mi41My00Mi44MDYgODguNDYxLTc4LjcyIDEzOS0xMDguNjgzQzMzOC44NzggMzQxLjA3NiAzNTkuMTUyIDMzMCAzNjAuMzM0IDMzMGMuMzY2IDAgLjY2NiA0Ny42NDUuNjY2IDEwNS44NzggMCA5NC4yMTIuMTcgMTA2LjAxOCAxLjU0MyAxMDcuMTU4IDIuMjU4IDEuODc0IDE5LjgzMy03LjEyNCAzMi4zODYtMTYuNTggNjEuOTQtNDYuNjYgNzMuMjQ3LTEzNC4xMzYgMjUuMTA4LTE5NC4yNTgtNi43NjYtOC40NS0yMy42NTktMjYuMzc2LTc2LjA0Ny04MC42OTgtODYuMDI0LTg5LjItOTIuNDY4LTk2LjQ1Ny0xMDEuMjE4LTExNC02Ljg3OC0xMy43OTItOS43OC0yNi4xMS05Ljc1OS00MS40MzQuMDQ5LTM1LjQ5IDIwLjc3Mi02OC4zNDggNTMuNDg3LTg0LjgxMkMyOTIuODYyIDguMDUzIDMwNy44NCAzIDMxMC45NjggM2MxLjAyNiAwIDIuMDQ0LS41MzcgMi4yNjMtMS4xOTQuNTMzLTEuNTk4IDI3LjQ4Mi0xLjc2MyAzMC44NjctLjE4OCAxLjMyLjYxNCA1Ljk4NyAyLjEwOCAxMC4zNyAzLjMyIDI0LjUwOSA2Ljc3NSA0Ni44MSAyMy4zNTYgNjQuNzU0IDQ4LjE0MyA4LjcyMiAxMi4wNDggMzEuNjQyIDQ4Ljc1NiA3Ni40MzggMTIyLjQxOSA1OC40MyA5Ni4wODMgNjMuNjg4IDEwNC44NzEgNjQuMTMgMTA3LjE4NC4yNDQgMS4yNzQuODQgMi4zMTYgMS4zMjcgMi4zMTYuNDg1IDAgLjg0Ny43ODguODA0IDEuNzUtLjA0OCAxLjA1Ni0uMjggMS4yNTItLjU4NS40OTQtLjI3OS0uNjkxLS45NTItLjk4Mi0xLjQ5NS0uNjQ1cy0yLjE0Mi0uNDUtMy41NS0xLjc0NGMtNC44MzQtNC40NDUtMTMzLjg4Ny0xMzkuMzU2LTE2My45MjQtMTcxLjM2NS0zNC40NjItMzYuNzI2LTQwLjk5LTQyLjk4MS00OS4wNDctNDctNS4wMTYtMi41MDEtNi45OTQtMi45MDgtMTQuMzItMi45NDYtNy4zMS0uMDM4LTkuMjg3LjM0My0xNC4xMjUgMi43MTgtNi4zNTEgMy4xMi0xMy41ODggMTAuMzEzLTE2Ljk0OCAxNi44NDYtMS41NTEgMy4wMTctMi4zOTQgNi43NC0yLjY5IDExLjg5Mi0uNTI3IDkuMTM1IDEuNzY1IDE2LjEzIDcuNTkyIDIzLjE3NSAyLjEyNiAyLjU3IDM4LjMxNSA0MC41OTYgODAuNDIgODQuNSA0Mi4xMDMgNDMuOTA0IDc5LjM4MiA4My4yIDgyLjg0IDg3LjMyNSAzMS45ODUgMzguMTUyIDQ4LjkzNiA5MS4zNDkgNDQuOTMgMTQxLTMuOTk2IDQ5LjUyLTI0LjU0IDk0LjAwOS01OC42NzYgMTI3LjA2My0xOC4yNTUgMTcuNjc3LTI5Ljg3MiAyNS41NTEtNjMuMzQzIDQyLjkzNi0xMi45MjUgNi43MTMtMjQuNTEzIDEyLjg0NS0yNS43NSAxMy42MjZsLTIuMjUgMS40MjF2MjU4LjQ3N2MwIDE1NS4zNzMtLjM2NCAyNTguNDc3LS45MTQgMjU4LjQ3Ny0uNTAyIDAtMTUuMTI3LTE0LjQ4OC0zMi41LTMyLjE5NnptLTE1MC43ODItNDU5Ljk5Yzg4LjAyMy00NS4xNTIgMTExLjE3Mi01Ny4yNzcgMTE0LjU1Ni02MC4wMDIgMi4xNS0xLjczIDMuMDktMy41OTIgMy43MDItNy4zMTYuOTQtNS43MzUgMS4yNS0xMjMuNTIuMzMxLTEyNS45MTQtMS4wMzUtMi42OTctMy40MTMtMS43OS0xMC43ODIgNC4xMTZDMjE4LjMxNCA1MDQuODIgMTYyLjg1NSA1NzEuNDk2IDEyMS43NDUgNjQ3LjVjLTEyLjczNSAyMy41NDYtMTMuOTIgMjYuNS0xMC42MzIgMjYuNS41NDggMCAzMC4xMDktMTQuOTM0IDY1LjY5MS0zMy4xODZ6Ii8+PHBhdGggZmlsbD0iI2NiNDI1YiIgZD0iTTMyNy43NSAxMTAwLjU1N0wyOTYgMTA2OC4yMDRWODYwLjA3YzAtMTgyLjIzNS0uMTgzLTIwOC4yMDQtMS40Ny0yMDguNjk4LTEuNDY2LS41NjItNTguNTQ0IDI4LjAxLTIwOS41MyAxMDQuODg2LTQzLjE3NSAyMS45ODItNzkuMzUyIDQwLjQxOC04MC4zOTQgNDAuOTY3LTEuNzc0LjkzNS0xLjg1Mi42ODQtMS4yMzItMy45OS4zNjQtMi43NDMgMi4yNDYtMTEuNDU2IDQuMTgzLTE5LjM2MkMzMy4xODUgNjY5LjI1IDg4LjY1IDU2NS4xNyAxNjIuNTY3IDQ4M2MxMy4wNTItMTQuNTA4IDQzLjQ3Mi00NC42NzYgNTcuOTMzLTU3LjQ1IDIyLjg2My0yMC4xOTkgNTIuODE4LTQyLjk4NiA3OS02MC4wOTdDMzE4LjIgMzUzLjIzIDM1OC4wNzEgMzMwIDM2MC4zNDcgMzMwYy4zNTQgMCAuNzU4IDQ4LjAzMS44OTggMTA2LjczNi4yOTIgMTIyLjA1LS45NDUgMTA5LjY1MiAxMC40MDUgMTA0LjM0IDI2LjQ2Mi0xMi4zODMgNTMuNjM0LTM5LjY1NiA2NS41MjItNjUuNzY2IDkuMzg2LTIwLjYxNSAxMi4zMDMtMzQuNDQyIDEyLjMwMy01OC4zMSAwLTI1Ljg1My0zLjQwOS00MC4yNTUtMTQuNzktNjIuNDg2LTkuNzEyLTE4Ljk3LTEyLjkwNS0yMi42MDUtOTIuNjYzLTEwNS41MTQtNTQuMjg3LTU2LjQzMi02OS42NjQtNzIuNTg3LTc4LjUyNS04Mi41LTE0LjQ5NS0xNi4yMTYtMjMuMjYtMzEuMjY5LTI3LjY2LTQ3LjUtMy4xODktMTEuNzY2LTMuMTkxLTMzLjU5My0uMDA1LTQ1LjUgMi45Ni0xMS4wNTggMTEuMDUzLTI2Ljk5NSAxOC4yNTUtMzUuOTQ4IDEzLjI5NS0xNi41MjggMzQuMjE4LTI5LjY0NSA1My43MDQtMzMuNjcgMy4zNTItLjY5MiA1LjkwNC0xLjU2NiA1LjY3LTEuOTQzLS4yMzItLjM3NiAzLjIxLTEuMDAxIDcuNjUtMS4zODggOS4wMjQtLjc4OCAyMy4xNTguMjA0IDIyLjMxNyAxLjU2NS0uMy40ODYuNTgyLjg4NCAxLjk2MS44ODQgMy45ODUgMCAxOC40MTggNC44NDUgMjYuNzQ1IDguOTc5IDE3LjE0OCA4LjUxMSAzMi42NzMgMjIuMDkgNDYuMzMyIDQwLjUyMSA4Ljc5NyAxMS44NzEgMzEuMzcxIDQ4LjAyIDgzLjA1NyAxMzNDNTUxLjY3OCAyNjcuOTYzIDU2MCAyODIuMDczIDU2MCAyODQuNjQ1YzAgNC40NzYgNi4yMDggMTAuNjk1LTk4LjQxMS05OC41ODgtMjAuMzAxLTIxLjIwNy00OS4zNzUtNTEuODMyLTY0LjYxLTY4LjA1Ny00OS4xMjMtNTIuMzE4LTUxLjg3NC01NC41MDgtNjguNDc5LTU0LjQ5LTcuODEyLjAwNy05LjY3Mi4zNjItMTQuMDg2IDIuNjgzLTYuMzcgMy4zNS0xMy42OCAxMC42ODYtMTYuNjQ1IDE2LjcwMy0xLjg4IDMuODE2LTIuMjY2IDYuMjMtMi4yNTQgMTQuMTA0LjAxMyA4LjQyNi4zMjggMTAuMDk4IDIuNzg1IDE0Ljc4NiAzLjE4MSA2LjA3LS4yOTIgMi4zNDQgODkuMjAyIDk1LjcxNCAzNy40MjkgMzkuMDUgNzAuMDg1IDczLjI1IDcyLjU3IDc2IDI2LjY3OSAyOS41MjMgNDMuMzY4IDY1LjMxNCA0OS40MjcgMTA2IDEuOTcgMTMuMjMgMS45MzkgNDAuMjkzLS4wNjMgNTQuNjQ4LTcuNzA5IDU1LjI2OC0zOC4zMDMgMTA0Ljc1LTgzLjkzNiAxMzUuNzU3LTExLjA4IDcuNTMtMjUuMTIgMTUuNDI5LTQ1LjUgMjUuNjAxLTcuNDI1IDMuNzA2LTE0LjczNyA3LjYxNC0xNi4yNSA4LjY4NGwtMi43NSAxLjk0NnYyNTguNDMyYzAgMTQyLjEzOC0uMzM3IDI1OC40MTItLjc1IDI1OC4zODctLjQxMi0uMDI1LTE1LjAzNy0xNC42MDQtMzIuNS0zMi4zOTh6TTE2MS41IDY0OC45MTVjNjEuNjctMzEuNTUzIDExNi41MDgtNTkuOTE1IDEyNC4xMTYtNjQuMTkyIDMuMjE3LTEuODA5IDYuODctNC44MDMgOC4xMTYtNi42NTRsMi4yNjgtMy4zNjV2LTYyLjc3YzAtMzQuNTI0LS4yNzMtNjMuNDgyLS42MDctNjQuMzUyLTEuMjQtMy4yMy00LjcwMS0xLjI4NC0xOS4xOTUgMTAuNzg2LTU5LjM0NyA0OS40MjQtMTA3Ljk5OCAxMDcuMjAyLTE0NS42MjIgMTcyLjk0QzEyMC43MjQgNjQ4LjUyNSAxMDkgNjcxLjE3IDEwOSA2NzIuOTg2YzAgLjU1OC43ODggMS4wMTIgMS43NSAxLjAwNy45NjMtLjAwNCAyMy44LTExLjI4OSA1MC43NS0yNS4wNzd6TTEuMDc5IDc5OC40MTdjLjA0OC0xLjE2NS4yODUtMS40MDIuNjA0LS42MDQuMjg5LjcyMS4yNTMgMS41ODQtLjA3OSAxLjkxNi0uMzMyLjMzMi0uNTY4LS4yNTgtLjUyNS0xLjMxMnptNTYwLTUxMmMuMDQ4LTEuMTY1LjI4NS0xLjQwMi42MDQtLjYwNC4yODkuNzIxLjI1MyAxLjU4NC0uMDc5IDEuOTE2LS4zMzIuMzMyLS41NjgtLjI1OC0uNTI1LTEuMzEyeiIvPjxwYXRoIGZpbGw9IiNjOTM5NTMiIGQ9Ik0zMjcuNzMgMTEwMC4yMTRMMjk2IDEwNjguNDI4VjY1MWgtMi4wMzVjLTEuOTIzIDAtNTYuNDgyIDI3LjQyOC0yMTkuMjYxIDExMC4yMy0zOC45MzggMTkuODA2LTcxLjA0IDM1Ljc2OC03MS4zMzcgMzUuNDctMS41Mi0xLjUyIDkuMTUyLTQzLjEyMyAxNy42MjMtNjguNyAyMy43ODUtNzEuODA4IDU5LjY4Ny0xNDAuMTg0IDEwNS41MzctMjAxIDQ5LjM3OC02NS40OTYgMTE0LjExOS0xMjQuNjAyIDE4NC45NzMtMTY4Ljg3N0MzMjkuNDI4IDM0Ni45MiAzNTcuNzE4IDMzMSAzNTkuNjk3IDMzMWMxLjA0OSAwIDEuMzQyIDIwLjEyNiAxLjU0OCAxMDYuMjVsLjI1NSAxMDYuMjUgMi4xNTguMzA3YzEuMTg3LjE3IDUuOTEyLTEuNTc1IDEwLjUtMy44NzcgMzguOTM4LTE5LjUzNCA2Ny4xNDMtNTcuNDYgNzQuMjYtOTkuODU2IDIuMDI4LTEyLjA4NSAyLjA1Mi0zNC4wODguMDUtNDUuNjkzLTQuMTA4LTIzLjgtMTQuOTc4LTQ3LjIwNy0zMC4zNDMtNjUuMzQtNi41OS03Ljc3OC0zMi41NjYtMzUuMTk4LTc4LjE2NS04Mi41MTMtODQuOTE2LTg4LjExMS04OC4zMTItOTEuOTc1LTk3LjU3NC0xMTEuMDI4LTYuODAzLTEzLjk5NC04LjY2Ni0yMi4zNzktOC42NjYtMzkgMC0xNS42NTIgMS42Mi0yMy42NjYgNy41NjQtMzcuNDEzIDExLjMwNS0yNi4xNSAzNi40MTYtNDcuMzI5IDY0LjU0OC01NC40NCA1LjA0LTEuMjc0IDguOTI1LTIuNTU2IDguNjMyLTIuODVzMi42NTMtLjg0NiA2LjU0Ni0xLjIzYzguMzI1LS44MiAyMy44MzIuMjg0IDIxLjgyOCAxLjU1NC0uOTQ1LjYtLjYyMy44NTMgMS4wOTguODY0IDQuMjQ2LjAyNiAxNy4yNzMgNC4wNzQgMjUuNjQ3IDcuOTcgMTguMDM3IDguMzg4IDMzLjgyMyAyMS43NjIgNDcuODAzIDQwLjQ5NCAxMC43NSAxNC40MDQgNDMuMzEyIDY3LjA0NCAxMzAuODY2IDIxMS41NTEgMTMuMTgyIDIxLjc1NiAxNS4xMDIgMjcuNTc2IDYuNTE2IDE5Ljc1LTEuOTYyLTEuNzg3LTI0Ljg1NC0yNS41MjUtNTAuODcyLTUyLjc1cy01Ni4zNDMtNTguOTUtNjcuMzg4LTcwLjUtMzAuMDM2LTMxLjU3NS00Mi4yMDMtNDQuNWMtNDUuMDM3LTQ3Ljg0Ny00OS4xMDQtNTEuMTUtNjMuODA1LTUxLjgxMi0xMC44Mi0uNDg4LTE3LjU4NSAyLjAzLTI1LjA1OCA5LjMyNS05LjU3NiA5LjM1LTEzLjE3NyAyMC45Ny05Ljk1NSAzMi4xMyAzLjIgMTEuMDktMy43NjYgMy4yMzggODUuNDk0IDk2LjM1NyAzNy4xNjggMzguNzc1IDcxLjE4NCA3NC4zNTEgNzUuNTkyIDc5LjA1OCAyNy45NzYgMjkuODczIDQ0LjYxOCA2My4zMDUgNTEuOTkxIDEwNC40NDIgMi4xNjUgMTIuMDc3IDIuOTcyIDM5LjM5IDEuNTQ5IDUyLjQwNC02LjY4IDYxLjA4My0zOC41NDYgMTEyLjg0My05MC4xMTMgMTQ2LjM2OC00LjY3NSAzLjAzOS0xOS43NSAxMS4zODYtMzMuNSAxOC41NDlsLTI1IDEzLjAyMy0uMjUyIDI1OC41NzhjLS4xMzggMTQyLjIxOC0uNTk4IDI1OC41NzgtMS4wMiAyNTguNTc4cy0xNS4wNDgtMTQuMzA0LTMyLjQ5OS0zMS43ODZ6TTE3My44MzIgNjQyLjg2OWM4MC45MTctNDEuNDg4IDExMS45MTItNTcuNTk1IDExNS44MjItNjAuMTg2IDYuNjYxLTQuNDE2IDYuMzQ1LS44NTUgNi4zNDUtNzEuMzg3IDAtNjMuNTA1LS4xMzMtNjYuMjk2LTMuMTYxLTY2LjI5Ni0uNDE5IDAtNi4wNjYgNC4zNDgtMTIuNTUgOS42NjEtNTAuNTAxIDQxLjM4OC05NS4wOSA5MC43MzEtMTI5LjUzIDE0My4zMzktMTkuMDQ3IDI5LjA5Ny00Mi43MjIgNzIuMDQ5LTQxLjQ4NiA3NS4yNjkuMzY1Ljk1Mi45NCAxLjczMSAxLjI3OSAxLjczMXMyOC44MTUtMTQuNDU5IDYzLjI4MS0zMi4xMzF6TTEuMDggNzk4LjQxN2MuMDQ4LTEuMTY1LjI4NS0xLjQwMi42MDQtLjYwNC4yODkuNzIxLjI1MyAxLjU4NC0uMDc5IDEuOTE2LS4zMzIuMzMyLS41NjgtLjI1OC0uNTI1LTEuMzEyeiIvPjxwYXRoIGZpbGw9IiNjNzMyNGQiIGQ9Ik0zMjguMjUgMTEwMC4yMjRMMjk3IDEwNjguMjE4Vjg2MS42NzRjMC0xMzUuMzgyLS4zNDUtMjA3LjQ1LTEtMjA5LjE3Ni0uNzc0LTIuMDM0LTEuNDYtMi40ODctMy4wMjItMS45OTEtMi4yMzguNzEtMTAwLjQ3IDUwLjM4Mi0yMTQuODcgMTA4LjY1QzM3LjE5IDc3OS45OTcgMy41OCA3OTYuOTE0IDMuNDE1IDc5Ni43NWMtLjE2NC0uMTY0Ljc1Mi01LjI1NiAyLjAzNS0xMS4zMTYgMTYuMzI3LTc3LjA4NiA1NS44NS0xNjUuMzQ3IDEwNi41ODYtMjM4LjAyMkMxNjYuNSA0NjkuMzk5IDI0MC41NjcgNDAwLjY4NSAzMjQgMzUwLjc2NCAzMzYuMTkzIDM0My40NyAzNTguNjEzIDMzMSAzNTkuNTM3IDMzMWMuMjU1IDAgLjQ2MyA0Ny4yMTMuNDYzIDEwNC45MTggMCA1Ny43MDUuMjczIDEwNS42My42MDcgMTA2LjUgMi41MiA2LjU2NSAzMC40MDItOS40MDYgNDkuNTMyLTI4LjM3IDQ5LjgxMy00OS4zODUgNTQuMzA1LTEyNy43NDIgMTAuNDU3LTE4Mi40MjUtNi44NjYtOC41NjMtMjIuMjg2LTI0LjkyLTgyLjYwMy04Ny42MjMtNjEuMjIzLTYzLjY0NS02OS43NzgtNzIuNzAzLTc4LjQ0OS04My4wNjEtMTguMjA1LTIxLjc0OC0yNS41MjMtNDAuMTIyLTI1LjUzNy02NC4xMjQtLjAxLTE3LjI1MiAzLjA3NS0yOS43MjUgMTEuMDYyLTQ0LjcxNSA4LjkzOC0xNi43NzQgMjMuMzA0LTMwLjUxMyA0MS40MzEtMzkuNjIyIDEwLjE1Mi01LjEwMiAyMy4xNTctOS4zMzcgMjkuNDEtOS41NzhsMi41OS0uMS0yLjUtLjcyN0MzMTEuOTIxLjg4NCAzMjcuNjI1LS4yNiAzMzYuMTIxLjYwNmM1LjUuNTYgNi43NDMuOTM1IDQuODc5IDEuNDczLTIuMzk2LjY5Mi0yLjM3Mi43MjYuNTYyLjgyMSA1LjY5Mi4xODYgMTguODg4IDQuMjEyIDI4LjE3MiA4LjU5NyAxOC40NTggOC43MTcgMzMuNDQzIDIxLjM5NSA0Ny40OTMgNDAuMTggOC41NTUgMTEuNDM3IDM1LjIzNCA1NC4xNTIgODUuNDU5IDEzNi44MjMgNTcuMTMgOTQuMDM3IDU5LjEzNSA5Ny41IDU2LjQ2NiA5Ny41LS41NDEgMC0zMC44MTctMzEuMTYyLTY3LjI4LTY5LjI1LTg3LjE0NS05MS4wMjctODAuNTI2LTg0LjA3OC0xMDQuNTQyLTEwOS43NS0yOC4wNi0yOS45OTYtMzYuMDQ4LTM3LjUwNy00My42NjYtNDEuMDYyLTE0LjgxNS02LjkxMi0yOS4wNzYtMy45Mi00MC41MDMgOC40OTYtNS42MDIgNi4wODctOC4zNSAxMi40MjYtOC45MSAyMC41NS0uNTA1IDcuMzE4IDEuNzE0IDE0LjcyNCA2LjUzNCAyMS44MTIgMS40OTMgMi4xOTYgMzcuNDA4IDQwLjE1MyA3OS44MSA4NC4zNDkgNDIuNDAzIDQ0LjE5NSA3OS42NiA4My4yOCA4Mi43OTMgODYuODU1IDEyLjYxIDE0LjM4NiAyNS45NjcgMzYuNTQ5IDMzLjUwNyA1NS42IDI5LjY1NSA3NC45MjIgMTAuNDU5IDE2MS45NTItNDcuNzgyIDIxNi42MjgtMTYuODE3IDE1Ljc4Ny0zMS4wODQgMjUuMDg4LTY2LjM1NSA0My4yNTMtMTEuNDA3IDUuODc1LTIxLjA4MiAxMS4yMDgtMjEuNSAxMS44NVMzNjAuMjc1IDczMi41NCAzNjAgODc0LjM2NmwtLjUgMjU3Ljg2NXptLTE2MS41NjItNDUzLjMzYzc4LjUwMi00MC4yNTQgMTE4LjI2LTYwLjg3NSAxMjIuNTM3LTYzLjU1NCA3LjcxNi00LjgzMyA3LjIzNy0uNDYyIDcuNTkyLTY5LjM5NS4xNzUtMzMuOTA1LS4wNzgtNjMuMTc1LS41NjMtNjUuMDQ0LS41MDUtMS45NTEtMS42MTQtMy41NC0yLjYwMy0zLjczLTMuNTA3LS42NzUtMzYuNjQgMjcuNzc3LTYyLjY2IDUzLjgxMS00Ny4zMzUgNDcuMzU3LTg3LjMzNiAxMDIuODQtMTE4LjQ2NCAxNjQuMzEyLTQuNTkgOS4wNjItNS4wNDggMTEuNzA2LTIuMDMgMTEuNzA2Ljc1OCAwIDI2LjA0NC0xMi42NDggNTYuMTktMjguMTA2ek0xLjA3OCA3OTguNDE3Yy4wNDktMS4xNjUuMjg2LTEuNDAyLjYwNS0uNjA0LjI4OS43MjEuMjUzIDEuNTg0LS4wNzkgMS45MTYtLjMzMi4zMzItLjU2OC0uMjU4LS41MjUtMS4zMTJ6Ii8+PHBhdGggZmlsbD0iI2M2MmI0NyIgZD0iTTMyOC4yNTIgMTA5OS41bC0zMS4yNDctMzEuODIyLS4yNTMtMjA4LjU4OUwyOTYuNSA2NTAuNWwtMi4wNC0uMjkyYy0xLjk3MS0uMjgyLTU4LjIyNyAyNy45MTQtMjE2LjM2MSAxMDguNDQ0QzM3LjcyOSA3NzkuMjEgNC40NjYgNzk1LjggNC4xODMgNzk1LjUxN2MtLjI4My0uMjgzLjQ5Ny01LjEyOCAxLjczNC0xMC43NjYgMjEuMjYtOTYuOTYzIDc1LjQ1NS0yMDQuODQzIDE0Mi44NzMtMjg0LjM5OCA1Ny4wMzQtNjcuMzAxIDEyNC45ODMtMTIyLjQ2OCAyMDMuNDYtMTY1LjE4Nmw3Ljc1LTQuMjE5djIxMy4wMTRsMi41MDQuNjI4YzYuNDY2IDEuNjIzIDMyLjkxNi0xNC45MjQgNDguMDMxLTMwLjA0OSAxNS44OTktMTUuOTA4IDI2LjI5LTMyLjc5NSAzMy40ODgtNTQuNDIgMTMuMTQzLTM5LjQ5MiA3LjI1NC04NC4xNjQtMTUuNjYtMTE4Ljc3Ni04LjA2Ny0xMi4xODctMTcuMjk2LTIyLjIyNi04NS44MS05My4zNDUtNzQuODEtNzcuNjUyLTgyLjc5Ni04Ni4yOTgtOTEuNjMtOTkuMTk1LTYuNzc2LTkuODktMTEuMDk5LTE4Ljk0OS0xNC4yMjQtMjkuODA1LTMuMTc4LTExLjAzOS0zLjExOC0zNC4xMjYuMTE3LTQ1LjUgNi4yOTktMjIuMTQ2IDIxLjAwNS00Mi41NTkgMzkuNTEyLTU0Ljg0MiAxMS45NTQtNy45MzUgMzEuNjItMTUuNDAyIDQxLjYxLTE1LjhsMy41NjItLjE0Mi00LS42NkMzMTAuNTQ1LjkwOCAzMjkuNDI0LS4zMDYgMzM3IC44MDJjNS43LjgzNCA2LjAwNy45ODEgMi41IDEuMTk3LTMuNjQ1LjIyMy0zLjQ2Ny4zMjEgMiAxLjEwMSAyOC4xOTMgNC4wMjQgNTUuNzM4IDIyLjE1MSA3Ni40NDQgNTAuMzA3IDkuNDU4IDEyLjg2MiA5My4yMDkgMTQ4LjczNyAxMzUuMzggMjE5LjYzNyA2LjQyMyAxMC44IDcuMjM5IDEzLjggMi41NTMgOS4zOTMtNS45My01LjU3Ny0xMzMuNjAyLTEzOS4wMzQtMTY0LjA1My0xNzEuNDg2QzM1Ni44NjggNzMuNjk3IDM1Mi45MjEgNjkuOTU4IDM0NCA2NS42NDRjLTUuODI3LTIuODE5LTcuNDMyLTMuMTQyLTE1LjUtMy4xMjQtMTEuMTg0LjAyNS0xNi40NDQgMi4yODctMjQuNjUgMTAuNi03LjY5OCA3LjgwMi0xMC4yMDIgMTQuNDA5LTkuNjE4IDI1LjM4LjQ3NSA4LjkxNCAyLjkyMiAxNC45MDQgOS4xMTUgMjIuMzE3IDEuOTI3IDIuMzA3IDM0LjI1NyAzNi4yNTQgNzEuODQ0IDc1LjQzOSAzNy41ODcgMzkuMTg0IDczLjAzIDc2LjE5NCA3OC43NiA4Mi4yNDQgMjcuNTkyIDI5LjEyNSA0NC42ODQgNjEuMjQyIDUyLjY3IDk4Ljk2NyAzLjQ5IDE2LjQ4OCA0LjQ1NCA0OS4yNjIgMS45NTggNjYuNTMzLTUuMTUyIDM1LjY0MS0yMC4yMjggNzAuMTU1LTQyLjU5IDk3LjUtOC41NjUgMTAuNDc1LTI2LjMzNCAyNy4xMzMtMzcuMDIzIDM0LjcxLTEyLjcxNCA5LjAxMS0xOC4yODcgMTIuMjQyLTQ1LjM1IDI2LjI5bC0yMy4xMTYgMTItLjUgMjU4LjQxMi0uNSAyNTguNDExem0tMTYwLjMyLTQ1Mi43MjdjNjcuODEyLTM0Ljc2NyAxMTIuOTg0LTU4LjEyNyAxMTkuNzEtNjEuOTA3IDkuNTQ0LTUuMzYzIDguODE5LjMzNyA5LjE0NS03MS44NjYuMTU4LTM0LjkyNS4wMzctNjQuNTEzLS4yNjktNjUuNzUtLjk4OS00LTQuOTcyLTIuODItMTMuMzQ3IDMuOTYtNzAuODggNTcuMzcyLTEyNC4zMiAxMjIuOTk2LTE2OC41MTMgMjA2LjkzNS03Ljc1MyAxNC43MjQtOC41NTQgMTguOTA5LTMuMyAxNy4yNDEgMS4xMDMtLjM1IDI2LjU2LTEzLjIyNiA1Ni41NzMtMjguNjEzek0xLjA3OCA3OTguNDE3Yy4wNDgtMS4xNjUuMjg1LTEuNDAyLjYwNC0uNjA0LjI4OS43MjEuMjUzIDEuNTg0LS4wNzkgMS45MTYtLjMzMi4zMzItLjU2OC0uMjU4LS41MjUtMS4zMTJ6Ii8+PC9zdmc+;" vertex="1" parent="1">
          <mxGeometry x="470" y="450" width="29.77" height="60" as="geometry" />
        </mxCell>
      </root>
    </mxGraphModel>
  </diagram>
</mxfile>
